<svg width="0" height="0" style="position:absolute"><symbol fill="none" viewBox="0 0 422 43" id="ohf-inline" xmlns="http://www.w3.org/2000/svg"><path d="M10.37 7.372a1.204 1.204 0 0 0-1.74 0L.87 15.402C.392 15.9 0 16.879 0 17.579v7.284c0 .7.554 1.275 1.232 1.275h16.536c.676 0 1.232-.573 1.232-1.275v-7.284c0-.7-.392-1.68-.871-2.175L10.37 7.372ZM.08 29.981a.95.95 0 0 1 .87-.583h17.1c.525 0 .95.438.95.978v4.646c0 .54-.425.978-.95.978h-1.188c-.524 0-.95-.438-.95-.978v-2.445H3.088v2.445c0 .54-.425.978-.95.978H.95c-.525 0-.95-.438-.95-.978v-4.646a1 1 0 0 1 .08-.395ZM41.688 34.432c-2.544 0-4.8-.552-6.768-1.656a12.214 12.214 0 0 1-4.572-4.608c-1.104-1.968-1.656-4.212-1.656-6.732 0-2.568.552-4.824 1.656-6.768 1.104-1.968 2.616-3.504 4.536-4.608 1.944-1.104 4.176-1.656 6.696-1.656 2.544 0 4.776.564 6.696 1.692a11.884 11.884 0 0 1 4.572 4.608c1.104 1.944 1.656 4.188 1.656 6.732 0 2.52-.552 4.764-1.656 6.732a11.952 11.952 0 0 1-4.536 4.608c-1.92 1.104-4.128 1.656-6.624 1.656Zm0-4.5c1.536 0 2.88-.36 4.032-1.08a7.573 7.573 0 0 0 2.736-3.024c.672-1.272 1.008-2.736 1.008-4.392 0-1.68-.336-3.156-1.008-4.428-.672-1.272-1.596-2.268-2.772-2.988" fill="#18BCF2"/></symbol></svg>