<svg width="3788" height="960" viewBox="0 0 3788 960" fill="none" xmlns="http://www.w3.org/2000/svg">
<g clip-path="url(#clip0_631_5387)">
<path opacity="0.8" d="M2519.2 -370.4V435.4" stroke="white" stroke-miterlimit="10"/>
<path d="M2519.3 267.899C2519.5 322.199 2521.2 381.299 2519.3 435.399H2519.1C2518 407.499 2518.1 379.599 2518.4 351.699C2518.7 330.999 2518.4 288.299 2519.3 267.999V267.899Z" fill="white"/>
<path d="M2525.02 435.366L2519.22 429.567L2513.42 435.366L2519.22 441.164L2525.02 435.366Z" fill="white"/>
<path opacity="0.8" d="M1894.8 -217.8V643.3" stroke="white" stroke-miterlimit="10"/>
<path d="M1894.9 475.8C1895.1 530.1 1896.8 589.2 1894.9 643.3H1894.7C1893.6 615.4 1893.7 587.5 1894 559.6C1894.3 538.9 1894 496.2 1894.9 475.9V475.8Z" fill="white"/>
<path d="M1900.59 643.256L1894.79 637.458L1888.99 643.256L1894.79 649.055L1900.59 643.256Z" fill="white"/>
<path opacity="0.8" d="M2624.1 -217.8V747.4" stroke="white" stroke-miterlimit="10"/>
<path d="M2624.2 580C2624.4 634.3 2626.1 693.4 2624.2 747.5H2624C2622.9 719.6 2623 691.7 2623.3 663.8C2623.6 643.1 2623.3 600.4 2624.2 580.1V580Z" fill="white"/>
<path d="M2629.87 747.459L2624.08 741.661L2618.28 747.459L2624.08 753.258L2629.87 747.459Z" fill="white"/>
<path opacity="0.8" d="M2729 -481.3V324.5" stroke="white" stroke-miterlimit="10"/>
<path d="M2729.1 157C2729.3 211.3 2731 270.4 2729.1 324.5H2728.9C2727.8 296.6 2727.9 268.7 2728.2 240.8C2728.5 220.1 2728.2 177.4 2729.1 157.1V157Z" fill="white"/>
<path d="M2734.79 324.5L2728.99 318.701L2723.19 324.499L2728.99 330.298L2734.79 324.5Z" fill="white"/>
<path opacity="0.8" d="M2833.9 -370.4V435.4" stroke="white" stroke-miterlimit="10"/>
<path d="M2834 267.899C2834.2 322.199 2835.9 381.299 2834 435.399H2833.8C2832.7 407.499 2832.8 379.599 2833.1 351.699C2833.4 330.999 2833.1 288.299 2834 267.999V267.899Z" fill="white"/>
<path d="M2839.64 435.393L2833.84 429.595L2828.05 435.393L2833.84 441.191L2839.64 435.393Z" fill="white"/>
<path opacity="0.8" d="M1581.6 -481.3V324.5" stroke="white" stroke-miterlimit="10"/>
<path d="M1581.7 157C1581.9 211.3 1583.6 270.4 1581.7 324.5H1581.5C1580.4 296.6 1580.5 268.7 1580.8 240.8C1581.1 220.1 1580.8 177.4 1581.7 157.1V157Z" fill="white"/>
<path d="M1587.35 324.565L1581.55 318.767L1575.75 324.565L1581.55 330.363L1587.35 324.565Z" fill="white"/>
<path opacity="0.8" d="M1686.4 -370.4V435.4" stroke="white" stroke-miterlimit="10"/>
<path d="M1686.5 267.899C1686.7 322.199 1688.4 381.299 1686.5 435.399H1686.3C1685.2 407.499 1685.3 379.599 1685.6 351.699C1685.9 330.999 1685.6 288.299 1686.5 267.999V267.899Z" fill="white"/>
<path d="M1692.31 435.458L1686.51 429.66L1680.71 435.458L1686.51 441.257L1692.31 435.458Z" fill="white"/>
<path opacity="0.8" d="M1998.6 -370.4V435.4" stroke="white" stroke-miterlimit="10"/>
<path d="M1998.8 267.899C1999 322.199 2000.7 381.299 1998.8 435.399H1998.6C1997.5 407.499 1997.6 379.599 1997.9 351.699C1998.2 330.999 1997.9 288.299 1998.8 267.999V267.899Z" fill="white"/>
<path d="M2004.47 435.417L1998.67 429.619L1992.87 435.417L1998.67 441.216L2004.47 435.417Z" fill="white"/>
<path opacity="0.8" d="M1469.73 -370.4V435.4" stroke="white" stroke-miterlimit="10"/>
<path d="M1469.93 267.899C1470.13 322.199 1471.83 381.299 1469.93 435.399H1469.73C1468.63 407.499 1468.73 379.599 1469.03 351.699C1469.33 330.999 1469.03 288.299 1469.93 267.999V267.899Z" fill="white"/>
<path d="M1475.6 435.417L1469.8 429.619L1464 435.417L1469.8 441.216L1475.6 435.417Z" fill="white"/>
<path opacity="0.8" d="M2938.8 -579.1V226.8" stroke="white" stroke-miterlimit="10"/>
<path d="M2938.9 59.3008C2939.1 113.601 2940.8 172.701 2938.9 226.801H2938.7C2937.6 198.901 2937.7 171.001 2938 143.101C2938.3 122.401 2938 79.7008 2938.9 59.4008V59.3008Z" fill="white"/>
<path d="M2944.52 226.867L2938.72 221.068L2932.92 226.867L2938.72 232.665L2944.52 226.867Z" fill="white"/>
<path opacity="0.8" d="M2415 -352.6V637" stroke="white" stroke-miterlimit="10"/>
<path d="M2415.1 469.5C2415.3 523.8 2417 582.9 2415.1 637H2414.9C2413.8 609.1 2413.9 581.2 2414.2 553.3C2414.5 532.6 2414.2 489.9 2415.1 469.6V469.5Z" fill="white"/>
<path d="M2420.78 637.039L2414.98 631.24L2409.19 637.038L2414.99 642.837L2420.78 637.039Z" fill="white"/>
<path opacity="0.8" d="M2310.1 -370.4V435.4" stroke="white" stroke-miterlimit="10"/>
<path d="M2310.2 267.899C2310.4 322.199 2312.1 381.299 2310.2 435.399H2310C2308.9 407.499 2309 379.599 2309.3 351.699C2309.6 330.999 2309.3 288.299 2310.2 267.999V267.899Z" fill="white"/>
<path d="M2315.86 435.41L2310.06 429.611L2304.26 435.41L2310.06 441.208L2315.86 435.41Z" fill="white"/>
<path opacity="0.8" d="M2206.7 -481.3V324.5" stroke="white" stroke-miterlimit="10"/>
<path d="M2206.8 157C2207 211.3 2208.7 270.4 2206.8 324.5H2206.6C2205.5 296.6 2205.6 268.7 2205.9 240.8C2206.2 220.1 2205.9 177.4 2206.8 157.1V157Z" fill="white"/>
<path d="M2212.46 324.478L2206.67 318.68L2200.87 324.478L2206.67 330.276L2212.46 324.478Z" fill="white"/>
<path opacity="0.8" d="M1790.6 -481.3V324.5" stroke="white" stroke-miterlimit="10"/>
<path d="M1790.7 157C1790.9 211.3 1792.6 270.4 1790.7 324.5H1790.5C1789.4 296.6 1789.5 268.7 1789.8 240.8C1790.1 220.1 1789.8 177.4 1790.7 157.1V157Z" fill="white"/>
<path d="M1796.51 324.521L1790.71 318.723L1784.91 324.521L1790.71 330.319L1796.51 324.521Z" fill="white"/>
<path opacity="0.8" d="M2101.8 -429.4V553.3" stroke="white" stroke-miterlimit="10"/>
<path d="M2101.9 385.8C2102.1 440.1 2103.8 499.2 2101.9 553.3H2101.7C2100.6 525.4 2100.7 497.5 2101 469.6C2101.3 448.9 2101 406.2 2101.9 385.9V385.8Z" fill="white"/>
<path d="M2107.6 553.287L2101.8 547.489L2096 553.288L2101.8 559.086L2107.6 553.287Z" fill="white"/>
<path opacity="0.8" d="M3052.7 -240.5V742.2" stroke="white" stroke-miterlimit="10"/>
<path d="M3052.8 574.7C3053 629 3054.7 688.1 3052.8 742.2H3052.6C3051.5 714.3 3051.6 686.4 3051.9 658.5C3052.2 637.8 3051.9 595.1 3052.8 574.8V574.7Z" fill="white"/>
<path d="M3058.52 742.148L3052.72 736.35L3046.92 742.148L3052.72 747.947L3058.52 742.148Z" fill="white"/>
<path opacity="0.8" d="M838.3 -370.4V435.4" stroke="white" stroke-miterlimit="10"/>
<path d="M838.4 267.899C838.6 322.199 840.3 381.299 838.4 435.399H838.2C837.1 407.499 837.2 379.599 837.5 351.699C837.8 330.999 837.5 288.299 838.4 267.999V267.899Z" fill="white"/>
<path d="M844.04 435.39L838.242 429.592L832.444 435.39L838.242 441.188L844.04 435.39Z" fill="white"/>
<path opacity="0.8" d="M213.9 -217.8V643.3" stroke="white" stroke-miterlimit="10"/>
<path d="M214 475.8C214.2 530.1 215.9 589.2 214 643.3H213.8C212.7 615.4 212.8 587.5 213.1 559.6C213.4 538.9 213.1 496.2 214 475.9V475.8Z" fill="white"/>
<path d="M219.716 643.281L213.917 637.482L208.119 643.281L213.917 649.079L219.716 643.281Z" fill="white"/>
<path opacity="0.8" d="M943.2 -217.8V747.4" stroke="white" stroke-miterlimit="10"/>
<path d="M943.3 580C943.5 634.3 945.2 693.4 943.3 747.5H943.1C942 719.6 942.1 691.7 942.4 663.8C942.7 643.1 942.4 600.4 943.3 580.1V580Z" fill="white"/>
<path d="M948.998 747.484L943.2 741.686L937.402 747.484L943.2 753.282L948.998 747.484Z" fill="white"/>
<path opacity="0.8" d="M1048.1 -481.3V324.5" stroke="white" stroke-miterlimit="10"/>
<path d="M1048.2 157C1048.4 211.3 1050.1 270.4 1048.2 324.5H1048C1046.9 296.6 1047 268.7 1047.3 240.8C1047.6 220.1 1047.3 177.4 1048.2 157.1V157Z" fill="white"/>
<path d="M1053.91 324.524L1048.11 318.726L1042.31 324.524L1048.11 330.322L1053.91 324.524Z" fill="white"/>
<path opacity="0.8" d="M1152.9 -370.4V435.4" stroke="white" stroke-miterlimit="10"/>
<path d="M1153 267.899C1153.2 322.199 1154.9 381.299 1153 435.399H1152.8C1151.7 407.499 1151.8 379.599 1152.1 351.699C1152.4 330.999 1152.1 288.299 1153 267.999V267.899Z" fill="white"/>
<path d="M1158.77 435.416L1152.97 429.618L1147.17 435.416L1152.97 441.215L1158.77 435.416Z" fill="white"/>
<path opacity="0.8" d="M5.5 -370.4V435.4" stroke="white" stroke-miterlimit="10"/>
<path d="M5.60001 267.899C5.80001 322.199 7.50001 381.299 5.60001 435.399H5.40002C4.30002 407.499 4.40002 379.599 4.70002 351.699C5.00002 330.999 4.70001 288.299 5.60001 267.999V267.899Z" fill="white"/>
<path d="M11.2619 435.412L5.46362 429.613L-0.334661 435.412L5.46361 441.21L11.2619 435.412Z" fill="white"/>
<path opacity="0.8" d="M317.7 -370.4V435.4" stroke="white" stroke-miterlimit="10"/>
<path d="M317.8 267.899C318 322.199 319.7 381.299 317.8 435.399H317.6C316.5 407.499 316.6 379.599 316.9 351.699C317.2 330.999 316.9 288.299 317.8 267.999V267.899Z" fill="white"/>
<path d="M323.521 435.371L317.722 429.572L311.924 435.371L317.722 441.169L323.521 435.371Z" fill="white"/>
<path opacity="0.8" d="M1257.8 -579.1V226.8" stroke="white" stroke-miterlimit="10"/>
<path d="M1257.9 59.3008C1258.1 113.601 1259.8 172.701 1257.9 226.801H1257.7C1256.6 198.901 1256.7 171.001 1257 143.101C1257.3 122.401 1257 79.7008 1257.9 59.4008V59.3008Z" fill="white"/>
<path d="M1263.57 226.72L1257.78 220.922L1251.98 226.72L1257.78 232.518L1263.57 226.72Z" fill="white"/>
<path opacity="0.8" d="M734 -352.6V637" stroke="white" stroke-miterlimit="10"/>
<path d="M734.1 469.5C734.3 523.8 736 582.9 734.1 637H733.9C732.8 609.1 732.9 581.2 733.2 553.3C733.5 532.6 733.2 489.9 734.1 469.6V469.5Z" fill="white"/>
<path d="M739.907 637.063L734.109 631.265L728.311 637.063L734.109 642.861L739.907 637.063Z" fill="white"/>
<path opacity="0.8" d="M629.2 -370.4V435.4" stroke="white" stroke-miterlimit="10"/>
<path d="M629.3 267.899C629.5 322.199 631.2 381.299 629.3 435.399H629.1C628 407.499 628.1 379.599 628.4 351.699C628.7 330.999 628.4 288.299 629.3 267.999V267.899Z" fill="white"/>
<path d="M634.984 435.434L629.186 429.636L623.388 435.434L629.186 441.232L634.984 435.434Z" fill="white"/>
<path opacity="0.8" d="M525.7 -481.3V324.5" stroke="white" stroke-miterlimit="10"/>
<path d="M525.8 157C526 211.3 527.7 270.4 525.8 324.5H525.6C524.5 296.6 524.6 268.7 524.9 240.8C525.2 220.1 524.9 177.4 525.8 157.1V157Z" fill="white"/>
<path d="M531.517 324.431L525.719 318.633L519.92 324.431L525.719 330.229L531.517 324.431Z" fill="white"/>
<path opacity="0.8" d="M109.7 -481.3V324.5" stroke="white" stroke-miterlimit="10"/>
<path d="M109.8 157C110 211.3 111.7 270.4 109.8 324.5H109.6C108.5 296.6 108.6 268.7 108.9 240.8C109.2 220.1 108.9 177.4 109.8 157.1V157Z" fill="white"/>
<path d="M115.461 324.475L109.662 318.677L103.864 324.475L109.662 330.273L115.461 324.475Z" fill="white"/>
<path opacity="0.8" d="M420.9 -429.4V553.3" stroke="white" stroke-miterlimit="10"/>
<path d="M421 385.8C421.2 440.1 422.9 499.2 421 553.3H420.8C419.7 525.4 419.8 497.5 420.1 469.6C420.4 448.9 420.1 406.2 421 385.9V385.8Z" fill="white"/>
<path d="M426.726 553.312L420.928 547.514L415.129 553.312L420.928 559.11L426.726 553.312Z" fill="white"/>
<path opacity="0.8" d="M3677.1 -370.4V435.4" stroke="white" stroke-miterlimit="10"/>
<path d="M3677.2 267.899C3677.4 322.199 3679.1 381.299 3677.2 435.399H3677C3675.9 407.499 3676 379.599 3676.3 351.699C3676.6 330.999 3676.3 288.299 3677.2 267.999V267.899Z" fill="white"/>
<path d="M3682.87 435.425L3677.08 429.627L3671.28 435.425L3677.08 441.223L3682.87 435.425Z" fill="white"/>
<path opacity="0.8" d="M3782 -217.8V747.4" stroke="white" stroke-miterlimit="10"/>
<path d="M3782.1 580C3782.3 634.3 3784 693.4 3782.1 747.5H3781.9C3780.8 719.6 3780.9 691.7 3781.2 663.8C3781.5 643.1 3781.2 600.4 3782.1 580.1V580Z" fill="white"/>
<path d="M3787.83 747.419L3782.03 741.62L3776.24 747.418L3782.03 753.217L3787.83 747.419Z" fill="white"/>
<path opacity="0.8" d="M3156.5 -370.4V435.4" stroke="white" stroke-miterlimit="10"/>
<path d="M3156.6 267.899C3156.8 322.199 3158.5 381.299 3156.6 435.399H3156.4C3155.3 407.499 3155.4 379.599 3155.7 351.699C3156 330.999 3155.7 288.299 3156.6 267.999V267.899Z" fill="white"/>
<path d="M3162.26 435.405L3156.46 429.606L3150.66 435.405L3156.46 441.203L3162.26 435.405Z" fill="white"/>
<path opacity="0.8" d="M3572.9 -352.6V637" stroke="white" stroke-miterlimit="10"/>
<path d="M3573 469.5C3573.2 523.8 3574.9 582.9 3573 637H3572.8C3571.7 609.1 3571.8 581.2 3572.1 553.3C3572.4 532.6 3572.1 489.9 3573 469.6V469.5Z" fill="white"/>
<path d="M3578.74 636.997L3572.94 631.199L3567.15 636.997L3572.94 642.796L3578.74 636.997Z" fill="white"/>
<path opacity="0.8" d="M3468 -370.4V435.4" stroke="white" stroke-miterlimit="10"/>
<path d="M3468.1 267.899C3468.3 322.199 3470 381.299 3468.1 435.399H3467.9C3466.8 407.499 3466.9 379.599 3467.2 351.699C3467.5 330.999 3467.2 288.299 3468.1 267.999V267.899Z" fill="white"/>
<path d="M3473.82 435.369L3468.02 429.57L3462.22 435.369L3468.02 441.167L3473.82 435.369Z" fill="white"/>
<path opacity="0.8" d="M3364.5 -481.3V324.5" stroke="white" stroke-miterlimit="10"/>
<path d="M3364.6 157C3364.8 211.3 3366.5 270.4 3364.6 324.5H3364.4C3363.3 296.6 3363.4 268.7 3363.7 240.8C3364 220.1 3363.7 177.4 3364.6 157.1V157Z" fill="white"/>
<path d="M3370.42 324.537L3364.62 318.738L3358.83 324.537L3364.62 330.335L3370.42 324.537Z" fill="white"/>
<path opacity="0.8" d="M3259.7 -429.4V553.3" stroke="white" stroke-miterlimit="10"/>
<path d="M3259.8 385.8C3260 440.1 3261.7 499.2 3259.8 553.3H3259.6C3258.5 525.4 3258.6 497.5 3258.9 469.6C3259.2 448.9 3258.9 406.2 3259.8 385.9V385.8Z" fill="white"/>
<path d="M3265.46 553.347L3259.66 547.549L3253.86 553.347L3259.66 559.145L3265.46 553.347Z" fill="white"/>
<path opacity="0.8" d="M1366.84 -429.4V553.3" stroke="white" stroke-miterlimit="10"/>
<path d="M1366.94 385.8C1367.14 440.1 1368.84 499.2 1366.94 553.3H1366.74C1365.64 525.4 1365.74 497.5 1366.04 469.6C1366.34 448.9 1366.04 406.2 1366.94 385.9V385.8Z" fill="white"/>
<path d="M1372.6 553.347L1366.8 547.549L1361 553.347L1366.8 559.145L1372.6 553.347Z" fill="white"/>
</g>
<defs>
<clipPath id="clip0_631_5387">
<rect width="3788" height="960" fill="white"/>
</clipPath>
</defs>
</svg>
