<svg width="390" height="263" viewBox="0 0 390 263" fill="none" xmlns="http://www.w3.org/2000/svg">
<g clip-path="url(#clip0_634_6375)">
<g clip-path="url(#clip1_634_6375)">
<path opacity="0.8" d="M295.767 -282.168V108.981" stroke="white" stroke-miterlimit="10"/>
<path d="M295.816 27.674C295.913 54.0321 296.737 82.7202 295.816 108.981H295.719C295.185 95.4381 295.234 81.895 295.379 68.3519C295.525 58.3038 295.379 37.5765 295.816 27.7225V27.674Z" fill="white"/>
<path d="M298.551 108.977L295.739 106.162L292.927 108.977L295.739 111.791L298.551 108.977Z" fill="white"/>
<path opacity="0.8" d="M346.639 -208.093V260.432" stroke="white" stroke-miterlimit="10"/>
<path d="M346.687 179.173C346.784 205.531 347.609 234.219 346.687 260.48H346.59C346.057 246.937 346.105 233.394 346.251 219.851C346.396 209.803 346.251 189.075 346.687 179.221V179.173Z" fill="white"/>
<path d="M349.451 260.472L346.639 257.657L343.827 260.472L346.639 263.287L349.451 260.472Z" fill="white"/>
<path opacity="0.8" d="M43.301 -282.168V108.981" stroke="white" stroke-miterlimit="10"/>
<path d="M43.3496 27.674C43.4466 54.0321 44.271 82.7202 43.3496 108.981H43.2526C42.7192 95.4381 42.7677 81.895 42.9132 68.3519C43.0586 58.3038 42.9131 37.5765 43.3496 27.7225V27.674Z" fill="white"/>
<path d="M46.1236 108.967L43.3118 106.152L40.4999 108.967L43.3118 111.782L46.1236 108.967Z" fill="white"/>
<path opacity="0.8" d="M245.187 -273.527V206.842" stroke="white" stroke-miterlimit="10"/>
<path d="M245.235 125.534C245.332 151.892 246.157 180.58 245.235 206.841H245.138C244.605 193.298 244.653 179.755 244.799 166.212C244.944 156.164 244.799 135.437 245.235 125.583V125.534Z" fill="white"/>
<path d="M248.052 206.872L245.24 204.057L242.428 206.872L245.24 209.687L248.052 206.872Z" fill="white"/>
<path opacity="0.8" d="M194.364 -282.168V108.981" stroke="white" stroke-miterlimit="10"/>
<path d="M194.412 27.674C194.509 54.0321 195.334 82.7202 194.412 108.981H194.315C193.782 95.4381 193.83 81.895 193.976 68.3519C194.121 58.3038 193.976 37.5765 194.412 27.7225V27.674Z" fill="white"/>
<path d="M197.169 108.998L194.357 106.183L191.545 108.998L194.357 111.813L197.169 108.998Z" fill="white"/>
<path opacity="0.8" d="M144.171 -336V55.1488" stroke="white" stroke-miterlimit="10"/>
<path d="M144.22 -26.1586C144.317 0.199558 145.141 28.8877 144.22 55.1487H144.123C143.589 41.6056 143.638 28.0625 143.783 14.5194C143.929 4.47123 143.783 -16.2561 144.22 -26.11V-26.1586Z" fill="white"/>
<path d="M146.992 55.1152L144.18 52.3006L141.368 55.1152L144.18 57.9298L146.992 55.1152Z" fill="white"/>
<path opacity="0.8" d="M93.3481 -310.807V166.212" stroke="white" stroke-miterlimit="10"/>
<path d="M93.3966 84.9047C93.4936 111.263 94.318 139.951 93.3966 166.212H93.2996C92.7662 152.669 92.8147 139.126 92.9602 125.583C93.1056 115.534 92.9602 94.8072 93.3966 84.9532V84.9047Z" fill="white"/>
<path d="M96.1735 166.218L93.3616 163.403L90.5497 166.218L93.3616 169.032L96.1735 166.218Z" fill="white"/>
</g>
</g>
<defs>
<clipPath id="clip0_634_6375">
<rect width="390" height="263" fill="white"/>
</clipPath>
<clipPath id="clip1_634_6375">
<rect width="1837" height="466" fill="white" transform="translate(-101.5 -106)"/>
</clipPath>
</defs>
</svg>
