<svg width="422" height="43" viewBox="0 0 422 43" fill="none" xmlns="http://www.w3.org/2000/svg">
<path d="M10.3702 7.37202C9.89104 6.87599 9.10689 6.87599 8.62976 7.37202L0.871274 15.4029C0.392073 15.8989 0 16.8781 0 17.5781V24.8617C0 25.5618 0.553881 26.1372 1.23223 26.1372H17.7678C18.444 26.1372 19 25.5639 19 24.8617V17.5781C19 16.8781 18.6079 15.8989 18.1287 15.4029L10.3702 7.37202Z" fill="#18BCF2"/>
<path d="M0.0804149 29.9813C0.227717 29.6376 0.561645 29.3977 0.95 29.3977H2.1375C2.13792 29.3977 2.13833 29.3977 2.13875 29.3977H16.8622C16.8623 29.3977 16.8624 29.3977 16.8625 29.3977H18.05C18.5747 29.3977 19 29.8356 19 30.3758V35.0219C19 35.5621 18.5747 36 18.05 36H16.8625C16.3378 36 15.9125 35.5621 15.9125 35.0219V32.5766H3.0875V35.0219C3.0875 35.5621 2.66217 36 2.1375 36H0.95C0.425329 36 0 35.5621 0 35.0219V30.3758C0 30.2354 0.0287107 30.102 0.0804149 29.9813Z" fill="#18BCF2"/>
<path d="M41.6876 34.432C39.1436 34.432 36.8876 33.88 34.9196 32.776C32.9756 31.648 31.4516 30.112 30.3476 28.168C29.2436 26.2 28.6916 23.956 28.6916 21.436C28.6916 18.868 29.2436 16.612 30.3476 14.668C31.4516 12.7 32.9636 11.164 34.8836 10.06C36.8276 8.956 39.0596 8.404 41.5796 8.404C44.1236 8.404 46.3556 8.968 48.2756 10.096C50.2196 11.2 51.7436 12.736 52.8476 14.704C53.9516 16.648 54.5036 18.892 54.5036 21.436C54.5036 23.956 53.9516 26.2 52.8476 28.168C51.7676 30.112 50.2556 31.648 48.3116 32.776C46.3916 33.88 44.1836 34.432 41.6876 34.432ZM41.6876 29.932C43.2236 29.932 44.5676 29.572 45.7196 28.852C46.8956 28.108 47.8076 27.1 48.4556 25.828C49.1276 24.556 49.4636 23.092 49.4636 21.436C49.4636 19.756 49.1276 18.28 48.4556 17.008C47.7836 15.736 46.8596 14.74 45.6836 14.02C44.5076 13.276 43.1396 12.904 41.5796 12.904C40.0676 12.904 38.7116 13.276 37.5116 14.02C36.3356 14.74 35.4116 15.736 34.7396 17.008C34.0676 18.28 33.7316 19.756 33.7316 21.436C33.7316 23.092 34.0676 24.556 34.7396 25.828C35.4116 27.1 36.3476 28.108 37.5476 28.852C38.7476 29.572 40.1276 29.932 41.6876 29.932ZM57.9996 41.2V16H62.4636L62.7516 19.312V41.2H57.9996ZM68.1876 34.432C66.6756 34.432 65.3916 34.048 64.3356 33.28C63.3036 32.512 62.5116 31.42 61.9596 30.004C61.4076 28.588 61.1316 26.92 61.1316 25C61.1316 23.056 61.4076 21.388 61.9596 19.996C62.5116 18.58 63.3036 17.488 64.3356 16.72C65.3916 15.952 66.6756 15.568 68.1876 15.568C69.8436 15.568 71.2716 15.952 72.4716 16.72C73.6956 17.488 74.6436 18.58 75.3156 19.996C75.9876 21.388 76.3236 23.056 76.3236 25C76.3236 26.92 75.9876 28.588 75.3156 30.004C74.6436 31.42 73.6956 32.512 72.4716 33.28C71.2716 34.048 69.8436 34.432 68.1876 34.432ZM66.9636 30.076C67.8276 30.076 68.5836 29.86 69.2316 29.428C69.9036 28.996 70.4316 28.396 70.8156 27.628C71.1996 26.86 71.3916 25.984 71.3916 25C71.3916 24.016 71.1996 23.14 70.8156 22.372C70.4556 21.604 69.9396 21.016 69.2676 20.608C68.6196 20.176 67.8636 19.96 66.9996 19.96C66.1836 19.96 65.4516 20.176 64.8036 20.608C64.1556 21.04 63.6516 21.64 63.2916 22.408C62.9316 23.152 62.7516 24.016 62.7516 25C62.7516 25.984 62.9316 26.86 63.2916 27.628C63.6516 28.396 64.1436 28.996 64.7676 29.428C65.4156 29.86 66.1476 30.076 66.9636 30.076ZM87.5767 34.432C85.8007 34.432 84.2287 34.036 82.8607 33.244C81.4927 32.428 80.4127 31.312 79.6207 29.896C78.8527 28.48 78.4687 26.848 78.4687 25C78.4687 23.152 78.8647 21.52 79.6567 20.104C80.4727 18.688 81.5767 17.584 82.9687 16.792C84.3847 15.976 86.0047 15.568 87.8287 15.568C89.4127 15.568 90.8647 15.988 92.1847 16.828C93.5287 17.644 94.5967 18.856 95.3887 20.464C96.2047 22.048 96.6127 23.98 96.6127 26.26H82.9687L83.4007 25.828C83.4007 26.716 83.6167 27.496 84.0487 28.168C84.5047 28.816 85.0807 29.32 85.7767 29.68C86.4967 30.016 87.2647 30.184 88.0807 30.184C89.0647 30.184 89.8687 29.98 90.4927 29.572C91.1167 29.14 91.5967 28.588 91.9327 27.916L96.1807 29.572C95.6767 30.58 95.0167 31.456 94.2007 32.2C93.4087 32.92 92.4607 33.472 91.3567 33.856C90.2527 34.24 88.9927 34.432 87.5767 34.432ZM83.6527 23.164L83.2207 22.732H91.8967L91.5007 23.164C91.5007 22.3 91.2967 21.616 90.8887 21.112C90.4807 20.584 89.9767 20.2 89.3767 19.96C88.8007 19.72 88.2367 19.6 87.6847 19.6C87.1327 19.6 86.5447 19.72 85.9207 19.96C85.2967 20.2 84.7567 20.584 84.3007 21.112C83.8687 21.616 83.6527 22.3 83.6527 23.164ZM99.3743 34V16H103.838L104.126 19.312V34H99.3743ZM111.29 34V24.784H116.042V34H111.29ZM111.29 24.784C111.29 23.56 111.146 22.612 110.858 21.94C110.594 21.268 110.21 20.788 109.706 20.5C109.202 20.188 108.614 20.032 107.942 20.032C106.718 20.008 105.77 20.38 105.098 21.148C104.45 21.916 104.126 23.056 104.126 24.568H102.542C102.542 22.648 102.818 21.028 103.37 19.708C103.946 18.364 104.738 17.344 105.746 16.648C106.778 15.928 107.978 15.568 109.346 15.568C110.762 15.568 111.974 15.856 112.982 16.432C113.99 17.008 114.758 17.908 115.286 19.132C115.814 20.332 116.066 21.892 116.042 23.812V24.784H111.29ZM145.693 34V8.8H150.625V34H145.693ZM129.097 34V8.764H134.029V34H129.097ZM132.769 23.38V18.844H148.033V23.38H132.769ZM163.873 34.432C162.049 34.432 160.417 34.036 158.977 33.244C157.561 32.428 156.445 31.312 155.629 29.896C154.837 28.48 154.441 26.848 154.441 25C154.441 23.152 154.837 21.52 155.629 20.104C156.421 18.688 157.525 17.584 158.941 16.792C160.357 15.976 161.977 15.568 163.801 15.568C165.649 15.568 167.281 15.976 168.697 16.792C170.113 17.584 171.217 18.688 172.009 20.104C172.801 21.52 173.197 23.152 173.197 25C173.197 26.848 172.801 28.48 172.009 29.896C171.217 31.312 170.113 32.428 168.697 33.244C167.305 34.036 165.697 34.432 163.873 34.432ZM163.873 30.04C164.761 30.04 165.541 29.824 166.213 29.392C166.885 28.96 167.401 28.372 167.761 27.628C168.145 26.86 168.337 25.984 168.337 25C168.337 24.016 168.145 23.152 167.761 22.408C167.377 21.64 166.837 21.04 166.141 20.608C165.469 20.176 164.689 19.96 163.801 19.96C162.937 19.96 162.157 20.176 161.461 20.608C160.789 21.04 160.261 21.64 159.877 22.408C159.493 23.152 159.301 24.016 159.301 25C159.301 25.984 159.493 26.86 159.877 27.628C160.261 28.372 160.801 28.96 161.497 29.392C162.193 29.824 162.985 30.04 163.873 30.04ZM176.331 34V16H180.795L181.011 18.34C181.563 17.428 182.271 16.744 183.135 16.288C183.999 15.808 184.959 15.568 186.015 15.568C187.479 15.568 188.703 15.88 189.687 16.504C190.695 17.128 191.427 18.088 191.883 19.384C192.411 18.16 193.155 17.224 194.115 16.576C195.075 15.904 196.191 15.568 197.463 15.568C199.575 15.568 201.183 16.24 202.287 17.584C203.391 18.904 203.943 20.944 203.943 23.704V34H199.191V24.784C199.191 23.56 199.059 22.612 198.795 21.94C198.531 21.268 198.171 20.788 197.715 20.5C197.259 20.188 196.719 20.032 196.095 20.032C194.943 20.008 194.055 20.38 193.431 21.148C192.807 21.916 192.495 23.056 192.495 24.568V34H187.743V24.784C187.743 23.56 187.611 22.612 187.347 21.94C187.107 21.268 186.747 20.788 186.267 20.5C185.811 20.188 185.271 20.032 184.647 20.032C183.495 20.008 182.607 20.38 181.983 21.148C181.383 21.916 181.083 23.056 181.083 24.568V34H176.331ZM215.862 34.432C214.086 34.432 212.514 34.036 211.146 33.244C209.778 32.428 208.698 31.312 207.906 29.896C207.138 28.48 206.754 26.848 206.754 25C206.754 23.152 207.15 21.52 207.942 20.104C208.758 18.688 209.862 17.584 211.254 16.792C212.67 15.976 214.29 15.568 216.114 15.568C217.698 15.568 219.15 15.988 220.47 16.828C221.814 17.644 222.882 18.856 223.674 20.464C224.49 22.048 224.898 23.98 224.898 26.26H211.254L211.686 25.828C211.686 26.716 211.902 27.496 212.334 28.168C212.79 28.816 213.366 29.32 214.062 29.68C214.782 30.016 215.55 30.184 216.366 30.184C217.35 30.184 218.154 29.98 218.778 29.572C219.402 29.14 219.882 28.588 220.218 27.916L224.466 29.572C223.962 30.58 223.302 31.456 222.486 32.2C221.694 32.92 220.746 33.472 219.642 33.856C218.538 34.24 217.278 34.432 215.862 34.432ZM211.938 23.164L211.506 22.732H220.182L219.786 23.164C219.786 22.3 219.582 21.616 219.174 21.112C218.766 20.584 218.262 20.2 217.662 19.96C217.086 19.72 216.522 19.6 215.97 19.6C215.418 19.6 214.83 19.72 214.206 19.96C213.582 20.2 213.042 20.584 212.586 21.112C212.154 21.616 211.938 22.3 211.938 23.164ZM236.922 34V8.8H253.086V13.3H241.854V19.348H251.214V23.848H241.854V34H236.922ZM264.35 34.432C262.526 34.432 260.894 34.036 259.454 33.244C258.038 32.428 256.922 31.312 256.106 29.896C255.314 28.48 254.918 26.848 254.918 25C254.918 23.152 255.314 21.52 256.106 20.104C256.898 18.688 258.002 17.584 259.418 16.792C260.834 15.976 262.454 15.568 264.278 15.568C266.126 15.568 267.758 15.976 269.174 16.792C270.59 17.584 271.694 18.688 272.486 20.104C273.278 21.52 273.674 23.152 273.674 25C273.674 26.848 273.278 28.48 272.486 29.896C271.694 31.312 270.59 32.428 269.174 33.244C267.782 34.036 266.174 34.432 264.35 34.432ZM264.35 30.04C265.238 30.04 266.018 29.824 266.69 29.392C267.362 28.96 267.878 28.372 268.238 27.628C268.622 26.86 268.814 25.984 268.814 25C268.814 24.016 268.622 23.152 268.238 22.408C267.854 21.64 267.314 21.04 266.618 20.608C265.946 20.176 265.166 19.96 264.278 19.96C263.414 19.96 262.634 20.176 261.938 20.608C261.266 21.04 260.738 21.64 260.354 22.408C259.97 23.152 259.778 24.016 259.778 25C259.778 25.984 259.97 26.86 260.354 27.628C260.738 28.372 261.278 28.96 261.974 29.392C262.67 29.824 263.462 30.04 264.35 30.04ZM288.688 34L288.4 30.688V16H293.152V34H288.688ZM276.484 25.216V16H281.236V25.216H276.484ZM281.236 25.216C281.236 26.416 281.368 27.364 281.632 28.06C281.92 28.732 282.316 29.224 282.82 29.536C283.348 29.824 283.936 29.968 284.584 29.968C285.832 29.992 286.78 29.62 287.428 28.852C288.076 28.06 288.4 26.92 288.4 25.432H290.02C290.02 27.352 289.732 28.984 289.156 30.328C288.58 31.648 287.788 32.668 286.78 33.388C285.772 34.084 284.584 34.432 283.216 34.432C281.776 34.432 280.552 34.144 279.544 33.568C278.536 32.992 277.768 32.104 277.24 30.904C276.736 29.68 276.484 28.108 276.484 26.188V25.216H281.236ZM297.269 34V16H301.733L302.021 19.312V34H297.269ZM309.185 34V24.784H313.937V34H309.185ZM309.185 24.784C309.185 23.56 309.041 22.612 308.753 21.94C308.489 21.268 308.105 20.788 307.601 20.5C307.097 20.188 306.509 20.032 305.837 20.032C304.613 20.008 303.665 20.38 302.993 21.148C302.345 21.916 302.021 23.056 302.021 24.568H300.437C300.437 22.648 300.713 21.028 301.265 19.708C301.841 18.364 302.633 17.344 303.641 16.648C304.673 15.928 305.873 15.568 307.241 15.568C308.657 15.568 309.869 15.856 310.877 16.432C311.885 17.008 312.653 17.908 313.181 19.132C313.709 20.332 313.961 21.892 313.937 23.812V24.784H309.185ZM330.546 34L330.294 30.652V8.8H335.046V34H330.546ZM324.894 34.432C323.238 34.432 321.798 34.048 320.574 33.28C319.374 32.512 318.438 31.42 317.766 30.004C317.094 28.588 316.758 26.92 316.758 25C316.758 23.056 317.094 21.388 317.766 19.996C318.438 18.58 319.374 17.488 320.574 16.72C321.798 15.952 323.238 15.568 324.894 15.568C326.406 15.568 327.678 15.952 328.71 16.72C329.766 17.488 330.57 18.58 331.122 19.996C331.674 21.388 331.95 23.056 331.95 25C331.95 26.92 331.674 28.588 331.122 30.004C330.57 31.42 329.766 32.512 328.71 33.28C327.678 34.048 326.406 34.432 324.894 34.432ZM326.118 30.076C326.934 30.076 327.654 29.86 328.278 29.428C328.926 28.996 329.43 28.396 329.79 27.628C330.15 26.86 330.33 25.984 330.33 25C330.33 24.016 330.15 23.14 329.79 22.372C329.43 21.604 328.926 21.016 328.278 20.608C327.654 20.176 326.922 19.96 326.082 19.96C325.218 19.96 324.462 20.176 323.814 20.608C323.166 21.016 322.65 21.604 322.266 22.372C321.882 23.14 321.69 24.016 321.69 25C321.69 25.984 321.882 26.86 322.266 27.628C322.65 28.396 323.166 28.996 323.814 29.428C324.486 29.86 325.254 30.076 326.118 30.076ZM350.012 34L349.868 30.364V24.892C349.868 23.812 349.748 22.888 349.508 22.12C349.292 21.352 348.932 20.764 348.428 20.356C347.948 19.924 347.288 19.708 346.448 19.708C345.68 19.708 344.984 19.876 344.36 20.212C343.736 20.548 343.208 21.064 342.776 21.76L338.6 20.32C338.936 19.552 339.428 18.808 340.076 18.088C340.724 17.344 341.564 16.744 342.596 16.288C343.652 15.808 344.936 15.568 346.448 15.568C348.272 15.568 349.784 15.916 350.984 16.612C352.208 17.308 353.108 18.292 353.684 19.564C354.284 20.812 354.572 22.3 354.548 24.028L354.44 34H350.012ZM344.972 34.432C342.812 34.432 341.132 33.952 339.932 32.992C338.756 32.032 338.168 30.676 338.168 28.924C338.168 27.004 338.804 25.564 340.076 24.604C341.372 23.62 343.184 23.128 345.512 23.128H350.084V26.656H347.168C345.608 26.656 344.528 26.848 343.928 27.232C343.328 27.592 343.028 28.108 343.028 28.78C343.028 29.308 343.268 29.728 343.748 30.04C344.228 30.328 344.9 30.472 345.764 30.472C346.556 30.472 347.252 30.292 347.852 29.932C348.476 29.548 348.968 29.068 349.328 28.492C349.688 27.892 349.868 27.28 349.868 26.656H351.02C351.02 29.104 350.552 31.012 349.616 32.38C348.704 33.748 347.156 34.432 344.972 34.432ZM365.751 34.432C363.759 34.432 362.247 33.94 361.215 32.956C360.207 31.972 359.703 30.568 359.703 28.744V10.384H364.455V27.7C364.455 28.468 364.623 29.056 364.959 29.464C365.295 29.848 365.787 30.04 366.435 30.04C366.675 30.04 366.939 29.992 367.227 29.896C367.515 29.776 367.815 29.608 368.127 29.392L369.783 32.956C369.207 33.388 368.559 33.736 367.839 34C367.143 34.288 366.447 34.432 365.751 34.432ZM356.787 20.032V16H368.955V20.032H356.787ZM373.108 34V16H377.86V34H373.108ZM375.484 13.084C374.764 13.084 374.128 12.82 373.576 12.292C373.024 11.74 372.748 11.092 372.748 10.348C372.748 9.604 373.024 8.968 373.576 8.44C374.128 7.888 374.764 7.612 375.484 7.612C376.228 7.612 376.864 7.888 377.392 8.44C377.944 8.968 378.22 9.604 378.22 10.348C378.22 11.092 377.944 11.74 377.392 12.292C376.864 12.82 376.228 13.084 375.484 13.084ZM390.701 34.432C388.877 34.432 387.245 34.036 385.805 33.244C384.389 32.428 383.273 31.312 382.457 29.896C381.665 28.48 381.269 26.848 381.269 25C381.269 23.152 381.665 21.52 382.457 20.104C383.249 18.688 384.353 17.584 385.769 16.792C387.185 15.976 388.805 15.568 390.629 15.568C392.477 15.568 394.109 15.976 395.525 16.792C396.941 17.584 398.045 18.688 398.837 20.104C399.629 21.52 400.025 23.152 400.025 25C400.025 26.848 399.629 28.48 398.837 29.896C398.045 31.312 396.941 32.428 395.525 33.244C394.133 34.036 392.525 34.432 390.701 34.432ZM390.701 30.04C391.589 30.04 392.369 29.824 393.041 29.392C393.713 28.96 394.229 28.372 394.589 27.628C394.973 26.86 395.165 25.984 395.165 25C395.165 24.016 394.973 23.152 394.589 22.408C394.205 21.64 393.665 21.04 392.969 20.608C392.297 20.176 391.517 19.96 390.629 19.96C389.765 19.96 388.985 20.176 388.289 20.608C387.617 21.04 387.089 21.64 386.705 22.408C386.321 23.152 386.129 24.016 386.129 25C386.129 25.984 386.321 26.86 386.705 27.628C387.089 28.372 387.629 28.96 388.325 29.392C389.021 29.824 389.813 30.04 390.701 30.04ZM403.159 34V16H407.623L407.911 19.312V34H403.159ZM415.075 34V24.784H419.827V34H415.075ZM415.075 24.784C415.075 23.56 414.931 22.612 414.643 21.94C414.379 21.268 413.995 20.788 413.491 20.5C412.987 20.188 412.399 20.032 411.727 20.032C410.503 20.008 409.555 20.38 408.883 21.148C408.235 21.916 407.911 23.056 407.911 24.568H406.327C406.327 22.648 406.603 21.028 407.155 19.708C407.731 18.364 408.523 17.344 409.531 16.648C410.563 15.928 411.763 15.568 413.131 15.568C414.547 15.568 415.759 15.856 416.767 16.432C417.775 17.008 418.543 17.908 419.071 19.132C419.599 20.332 419.851 21.892 419.827 23.812V24.784H415.075Z" fill="#18BCF2"/>
</svg>
