<svg width="210" height="48" viewBox="0 0 210 48" fill="none" xmlns="http://www.w3.org/2000/svg">
<path d="M17.4325 0.726951C16.6269 -0.0769523 15.3088 -0.0769523 14.5067 0.726951L1.46462 13.7425C0.659079 14.5464 0 16.1334 0 17.2679V29.0724C0 30.2069 0.93108 31.1395 2.07139 31.1395H29.8678C31.0046 31.1395 31.9392 30.2104 31.9392 29.0724V17.2679C31.9392 16.1334 31.2801 14.5464 30.4745 13.7425L17.4325 0.726951Z" fill="#18BCF2"/>
<path d="M0.135178 37.3696C0.382794 36.8125 0.94413 36.4237 1.59696 36.4237H3.59316H3.59526H28.3454H30.3422C31.2242 36.4237 31.9392 37.1334 31.9392 38.0089V45.5388C31.9392 46.4143 31.2242 47.124 30.3422 47.124H28.346C27.464 47.124 26.7491 46.4143 26.7491 45.5388V41.5757H5.19011V45.5388C5.19011 46.4143 4.47513 47.124 3.59316 47.124H1.59696C0.714982 47.124 0 46.4143 0 45.5388V38.0089C0 37.7814 0.0482629 37.5652 0.135178 37.3696Z" fill="#18BCF2"/>
<path d="M52.5495 5.11522C54.0118 5.11522 55.3667 5.37669 56.6142 5.90306C57.8617 6.42599 58.9186 7.1519 59.7849 8.07734C60.6512 9.00279 61.327 10.1106 61.8121 11.4076C62.2938 12.7046 62.5363 14.1048 62.5363 15.6117C62.5537 17.1013 62.318 18.4981 61.8329 19.8088C61.3443 21.1196 60.6616 22.2377 59.7849 23.1666C58.9082 24.0955 57.8409 24.8248 56.5865 25.3512C55.3321 25.881 53.9772 26.1356 52.5218 26.1184C50.5985 26.1459 48.8694 25.7056 47.3377 24.8008C45.8061 23.896 44.6245 22.6402 43.7928 21.0336C42.9611 19.427 42.5592 17.6277 42.5869 15.6392C42.5696 14.1495 42.8052 12.7527 43.2903 11.442C43.7789 10.1312 44.4581 9.01311 45.3314 8.07734C46.2046 7.14501 47.265 6.41222 48.5159 5.88586C49.7669 5.35949 51.1114 5.10146 52.5495 5.11866V5.11522ZM52.5737 22.0967C54.2994 22.0967 55.6647 21.5153 56.6731 20.3559C57.6815 19.193 58.184 17.6139 58.184 15.6117C58.184 13.6094 57.6815 12.0062 56.6801 10.8468C55.6786 9.69086 54.3098 9.11288 52.5737 9.11288C50.8377 9.11288 49.4689 9.69086 48.4674 10.8468C47.466 12.0028 46.9635 13.5922 46.9635 15.6117C46.9635 17.6311 47.466 19.2171 48.4674 20.3696C49.4689 21.5221 50.8377 22.1001 52.5737 22.1001V22.0967Z" fill="#18BCF2"/>
<path d="M80.7116 12.192C80.7116 14.2286 80.0913 15.8662 78.8542 17.1082C77.6171 18.3502 75.933 18.9729 73.7984 18.9729H69.7475V25.7813H65.6135V5.47646H73.8538C75.9954 5.47646 77.6725 6.07507 78.8888 7.27231C80.1051 8.46954 80.7116 10.1106 80.7116 12.1885V12.192ZM76.3453 12.1128C76.3453 11.2528 76.0647 10.5406 75.4998 9.97984C74.935 9.41907 74.1207 9.1404 73.0534 9.1404H69.7475V15.3984H73.0534C74.1276 15.3984 74.9454 15.0956 75.5068 14.4901C76.0681 13.8846 76.3453 13.0933 76.3453 12.1163V12.1128Z" fill="#18BCF2"/>
<path d="M96.4992 25.7813H83.6258V5.47646H96.4992V9.37779H87.7564V13.7092H95.522V17.3421H87.7564V21.9178H96.4992V25.7813Z" fill="#18BCF2"/>
<path d="M117.966 5.4799V25.7847H113.86L104.902 12.0337V25.7847H100.796V5.4799H104.902L113.86 19.2584V5.4799H117.966Z" fill="#18BCF2"/>
<path d="M129.676 5.4799H133.81V13.6885L141.915 13.716V5.4799H146.077V25.7847H141.915V17.3765L133.81 17.3215V25.7847H129.676V5.4799Z" fill="#18BCF2"/>
<path d="M159.085 5.11522C160.547 5.11522 161.902 5.37669 163.15 5.90306C164.397 6.42599 165.454 7.1519 166.321 8.07734C167.187 9.00279 167.863 10.1106 168.348 11.4076C168.829 12.7046 169.072 14.1048 169.072 15.6117C169.089 17.1013 168.854 18.4981 168.369 19.8088C167.88 21.1196 167.197 22.2377 166.321 23.1666C165.444 24.0955 164.377 24.8248 163.122 25.3512C161.868 25.881 160.513 26.1356 159.057 26.1184C157.134 26.1459 155.405 25.7056 153.873 24.8008C152.342 23.896 151.16 22.6402 150.328 21.0336C149.497 19.427 149.095 17.6277 149.123 15.6392C149.105 14.1495 149.341 12.7527 149.826 11.442C150.315 10.1312 150.994 9.01311 151.867 8.07734C152.74 7.14501 153.801 6.41222 155.052 5.88586C156.303 5.35949 157.647 5.10146 159.085 5.11866V5.11522ZM159.109 22.0967C160.835 22.0967 162.2 21.5153 163.209 20.3559C164.217 19.193 164.72 17.6139 164.72 15.6117C164.72 13.6094 164.217 12.0062 163.216 10.8468C162.214 9.69086 160.845 9.11288 159.109 9.11288C157.373 9.11288 156.005 9.69086 155.003 10.8468C154.002 12.0028 153.499 13.5922 153.499 15.6117C153.499 17.6311 154.002 19.2171 155.003 20.3696C156.005 21.5221 157.373 22.1001 159.109 22.1001V22.0967Z" fill="#18BCF2"/>
<path d="M192.788 5.4799V25.7847H188.71V14.6828L184.333 25.7847H180.417L176.093 14.7653V25.7847H172.149V5.4799H176.093L182.382 20.9923L188.71 5.4799H192.788Z" fill="#18BCF2"/>
<path d="M210 25.7813H197.127V5.47646H210V9.37779H201.257V13.7092H209.023V17.3421H201.257V21.9178H210V25.7813Z" fill="#18BCF2"/>
<path d="M44.9219 33.8453V38.4077H50.8094V40.4915H44.9219V46.8528H42.5856V31.6516H51.9204V33.8453H44.9219Z" fill="#18BCF2"/>
<path d="M60.833 31.4044C61.8956 31.3907 62.8924 31.5829 63.8165 31.9777C64.7407 32.3725 65.5298 32.9184 66.1805 33.6153C66.8278 34.3122 67.3366 35.1498 67.7035 36.1213C68.0703 37.0963 68.2469 38.1365 68.233 39.2453C68.2469 40.3611 68.0703 41.4116 67.7035 42.3899C67.3366 43.3718 66.8278 44.206 66.1805 44.9029C65.5333 45.5964 64.7441 46.1422 63.8165 46.537C62.8889 46.9318 61.8956 47.124 60.833 47.1103C59.7704 47.124 58.777 46.9318 57.8529 46.537C56.9287 46.1422 56.1431 45.5964 55.4958 44.8995C54.8486 44.2026 54.3398 43.3649 53.9764 42.3934C53.6129 41.4219 53.4364 40.3782 53.4502 39.2694C53.4364 38.1605 53.6129 37.1169 53.9764 36.1419C54.3398 35.167 54.8451 34.3293 55.4958 33.629C56.1431 32.9321 56.9287 32.3828 57.8529 31.9846C58.777 31.5864 59.7704 31.3941 60.833 31.4079V31.4044ZM57.2679 43.2928C58.1713 44.309 59.3654 44.8205 60.8537 44.8205C62.3421 44.8205 63.5362 44.3124 64.4361 43.2928C65.336 42.2767 65.7859 40.9275 65.7859 39.2453C65.7859 37.5632 65.336 36.2037 64.4361 35.1876C63.5362 34.1714 62.3421 33.6599 60.8537 33.6599C59.3654 33.6599 58.1679 34.1714 57.2679 35.191C56.3646 36.2106 55.9146 37.5632 55.9146 39.2453C55.9146 40.9275 56.3646 42.2767 57.2679 43.2928Z" fill="#18BCF2"/>
<path d="M73.0302 31.6482V41.3669C73.0371 42.5238 73.3798 43.3992 74.0582 43.9897C74.7366 44.5836 75.6296 44.8789 76.7337 44.8789C77.8378 44.8789 78.6824 44.5665 79.3884 43.9451C80.0945 43.3237 80.4476 42.462 80.4476 41.3669V31.6482H82.7839V41.4596C82.7839 42.3522 82.6212 43.1589 82.2993 43.8833C81.9774 44.6077 81.5379 45.205 80.9875 45.6684C80.4337 46.1353 79.7969 46.4924 79.0666 46.7464C78.3363 47.0004 77.5609 47.124 76.7302 47.124C75.8996 47.124 75.1554 47.0004 74.4355 46.7567C73.7155 46.513 73.0718 46.1594 72.511 45.6993C71.9469 45.2393 71.5038 44.6454 71.1785 43.9142C70.8531 43.183 70.6905 42.3625 70.6905 41.4596V31.6482H73.0302Z" fill="#18BCF2"/>
<path d="M98.4043 31.6482V46.8494H96.068L88.5122 35.3936V46.8494H86.1759V31.6482H88.5122L96.068 43.1246V31.6482H98.4043Z" fill="#18BCF2"/>
<path d="M114.731 39.2659C114.738 40.3542 114.547 41.3772 114.16 42.3282C113.772 43.2825 113.235 44.0927 112.554 44.7587C111.872 45.4247 111.051 45.9465 110.093 46.3207C109.134 46.6949 108.113 46.8734 107.019 46.8528H101.914V31.6516H107.019C108.459 31.631 109.774 31.9468 110.958 32.6025C112.142 33.2548 113.069 34.168 113.741 35.3386C114.412 36.5093 114.741 37.8207 114.731 39.2694V39.2659ZM112.249 39.2659C112.249 37.6593 111.768 36.3548 110.802 35.3524C109.837 34.3499 108.57 33.8453 106.998 33.8453H104.271V44.6969H106.998C108.584 44.6969 109.854 44.1991 110.813 43.2001C111.771 42.2046 112.249 40.8897 112.249 39.2659Z" fill="#18BCF2"/>
<path d="M124.99 43.1967H118.874L117.545 46.8528H115.146L120.684 31.6516H123.197L128.766 46.8528H126.295L124.986 43.1967H124.99ZM124.311 41.2262L121.954 34.6005L119.576 41.2262H124.311Z" fill="#18BCF2"/>
<path d="M139.257 33.8453H134.809V46.8528H132.452V33.8453H128.004V31.6516H139.253V33.8453H139.257Z" fill="#18BCF2"/>
<path d="M141.368 46.8494V31.6482H143.725V46.8494H141.368Z" fill="#18BCF2"/>
<path d="M153.697 31.4044C154.759 31.3907 155.756 31.5829 156.68 31.9777C157.608 32.3725 158.394 32.9184 159.044 33.6153C159.692 34.3122 160.2 35.1498 160.567 36.1213C160.934 37.0963 161.111 38.1365 161.097 39.2453C161.111 40.3611 160.934 41.4116 160.567 42.3899C160.2 43.3718 159.692 44.206 159.044 44.9029C158.397 45.5964 157.608 46.1422 156.68 46.537C155.753 46.9318 154.759 47.124 153.697 47.1103C152.634 47.124 151.641 46.9318 150.717 46.537C149.793 46.1422 149.007 45.5964 148.36 44.8995C147.712 44.2026 147.204 43.3649 146.84 42.3934C146.477 41.4219 146.3 40.3782 146.314 39.2694C146.3 38.1605 146.477 37.1169 146.84 36.1419C147.204 35.167 147.709 34.3293 148.36 33.629C149.007 32.9321 149.793 32.3828 150.717 31.9846C151.641 31.5864 152.634 31.3941 153.697 31.4079V31.4044ZM150.132 43.2928C151.035 44.309 152.229 44.8205 153.718 44.8205C155.206 44.8205 156.4 44.3124 157.3 43.2928C158.2 42.2767 158.65 40.9275 158.65 39.2453C158.65 37.5632 158.2 36.2037 157.3 35.1876C156.4 34.1714 155.206 33.6599 153.718 33.6599C152.229 33.6599 151.032 34.1714 150.132 35.191C149.228 36.2106 148.778 37.5632 148.778 39.2453C148.778 40.9275 149.228 42.2767 150.132 43.2928Z" fill="#18BCF2"/>
<path d="M175.932 31.6482V46.8494H173.595L166.039 35.3936V46.8494H163.703V31.6482H166.039L173.595 43.1246V31.6482H175.932Z" fill="#18BCF2"/>
</svg>
