<svg width="300" height="77" viewBox="0 0 300 77" fill="none" xmlns="http://www.w3.org/2000/svg">
<g clip-path="url(#clip0_347_3462)">
<path d="M10 0.500488H290C295.313 0.500488 299.625 4.86556 299.625 10.2572V65.9905C299.625 71.3821 295.313 75.7472 290 75.7472H10C4.68737 75.7472 0.375 71.3821 0.375 65.9905V10.2572C0.375 4.86556 4.68737 0.500488 10 0.500488Z" fill="#F2F4F9" stroke="#1D2126" stroke-width="0.5"/>
<path d="M67.5 56.8908C67.5 58.4564 66.235 59.7382 64.69 59.7382H25.31C23.765 59.7382 22.5 58.4564 22.5 56.8908V39.7908C22.5 38.2252 23.395 36.0364 24.49 34.9268L43.01 16.1598C44.105 15.0502 45.895 15.0502 46.985 16.1598L65.51 34.9318C66.605 36.0414 67.5 38.2302 67.5 39.7958V56.8958V56.8908Z" fill="#F2F4F9"/>
<path d="M65.51 34.9216L46.99 16.1547C45.895 15.0451 44.105 15.0451 43.015 16.1547L24.49 34.9216C23.395 36.0312 22.5 38.22 22.5 39.7856V56.8856C22.5 58.4512 23.765 59.7331 25.31 59.7331H42.61L34.99 52.0115C34.6 52.1483 34.18 52.2243 33.745 52.2243C31.625 52.2243 29.9 50.4763 29.9 48.328C29.9 46.1798 31.625 44.4318 33.745 44.4318C35.865 44.4318 37.59 46.1798 37.59 48.328C37.59 48.7688 37.515 49.1944 37.38 49.5896L43.31 55.5987V33.579C42.035 32.9456 41.155 31.6182 41.155 30.083C41.155 27.9347 42.88 26.1867 45 26.1867C47.12 26.1867 48.845 27.9347 48.845 30.083C48.845 31.6182 47.965 32.9406 46.69 33.579V49.0222L52.59 43.0435C52.475 42.6686 52.41 42.2784 52.41 41.868C52.41 39.7198 54.135 37.9718 56.255 37.9718C58.375 37.9718 60.1 39.7198 60.1 41.868C60.1 44.0163 58.375 45.7643 56.255 45.7643C55.785 45.7643 55.34 45.6731 54.925 45.5211L46.69 53.8659V59.7331H64.69C66.235 59.7331 67.5 58.4512 67.5 56.8856V39.7856C67.5 38.22 66.605 36.0312 65.51 34.9216Z" fill="#18BCF2"/>
<path d="M93.785 18.5258L91.095 27.4837H89.355L87.64 21.7938L85.875 27.4837H84.125L81.475 18.5258H83.45L85.025 24.3069L86.655 18.5258H88.645L90.235 24.3373L91.865 18.5258H93.785ZM98.865 18.3637C99.495 18.3637 100.085 18.4802 100.62 18.7133C101.16 18.9413 101.615 19.2605 101.99 19.6709C102.365 20.0762 102.655 20.5677 102.865 21.1453C103.075 21.7128 103.18 22.3309 103.18 22.9997C103.19 23.6584 103.085 24.2765 102.875 24.8541C102.665 25.4317 102.37 25.9282 101.99 26.3386C101.61 26.744 101.15 27.0682 100.61 27.3013C100.07 27.5344 99.48 27.6458 98.85 27.6408C98.02 27.6509 97.27 27.4584 96.605 27.0581C95.945 26.6578 95.435 26.1056 95.075 25.3962C94.715 24.6869 94.54 23.8965 94.555 23.0149C94.55 22.3562 94.65 21.7381 94.86 21.1605C95.07 20.5829 95.365 20.0864 95.74 19.676C96.12 19.2656 96.58 18.9413 97.115 18.7082C97.66 18.4752 98.24 18.3637 98.86 18.3688L98.865 18.3637ZM98.875 25.8573C99.62 25.8573 100.21 25.604 100.645 25.0922C101.085 24.5754 101.3 23.8813 101.3 22.9946C101.3 22.108 101.085 21.4037 100.65 20.892C100.215 20.3802 99.625 20.1269 98.875 20.1269C98.125 20.1269 97.535 20.3802 97.1 20.892C96.665 21.4037 96.45 22.1029 96.45 22.9946C96.45 23.8864 96.665 24.5856 97.1 25.0973C97.535 25.604 98.125 25.8573 98.875 25.8573ZM111.9 27.4837H109.895L108.535 24.2461H106.905V27.4837H105.12V18.5258H108.525C109.62 18.5258 110.445 18.7792 111.005 19.2656C111.565 19.752 111.845 20.4613 111.845 21.3936C111.845 22.0016 111.715 22.5234 111.455 22.9693C111.195 23.4101 110.83 23.7344 110.345 23.9472L111.905 27.4837H111.9ZM109.94 21.3936C109.94 21.0034 109.82 20.6994 109.585 20.4816C109.345 20.2536 108.995 20.1421 108.525 20.1421H106.905V22.6704H108.525C108.995 22.6704 109.345 22.5589 109.585 22.3309C109.825 22.1029 109.94 21.7888 109.94 21.3936ZM117.795 23.0048L121.145 27.4837H118.815L116.68 24.4538L115.685 25.7661V27.5192H113.885V18.5258H115.685V22.9034L118.925 18.5258H121.25L117.795 23.0098V23.0048ZM124.975 18.3637C125.805 18.3637 126.49 18.5664 127.035 18.9768C127.585 19.3821 127.925 19.9293 128.05 20.6133L126.355 21.0642C126.285 20.7298 126.125 20.4714 125.875 20.2992C125.625 20.1218 125.315 20.0306 124.935 20.0306C124.54 20.0306 124.23 20.1218 124.01 20.3042C123.785 20.4866 123.675 20.7298 123.675 21.0288C123.675 21.5 123.98 21.8141 124.59 21.9712L125.985 22.3258C126.76 22.5234 127.335 22.8426 127.71 23.2834C128.09 23.7242 128.28 24.2613 128.28 24.9048C128.28 25.7256 127.985 26.3893 127.395 26.896C126.81 27.3925 126.025 27.6458 125.05 27.6458C124.15 27.6458 123.395 27.428 122.78 26.9973C122.17 26.5616 121.815 25.984 121.71 25.2696L123.405 24.8338C123.455 25.1936 123.635 25.4722 123.94 25.6698C124.25 25.8624 124.64 25.9586 125.11 25.9586C125.55 25.9586 125.885 25.8725 126.13 25.7053C126.375 25.533 126.495 25.3 126.495 25.001C126.495 24.5298 126.2 24.2157 125.605 24.0485L124.185 23.709C123.42 23.5165 122.845 23.1973 122.46 22.7464C122.08 22.2954 121.89 21.7432 121.89 21.0946C121.89 20.2738 122.17 19.6101 122.73 19.1136C123.29 18.612 124.04 18.3586 124.975 18.3586V18.3637ZM145.51 18.5258L142.82 27.4837H141.08L139.365 21.7938L137.6 27.4837H135.85L133.2 18.5258H135.175L136.75 24.3069L138.38 18.5258H140.37L141.96 24.3373L143.59 18.5258H145.51ZM147.18 27.4837V18.5258H148.965V27.4837H147.18ZM157.4 20.2434H154.95V27.4837H153.165V20.2434H150.715V18.5208H157.4V20.2434ZM159.15 18.5258H160.935V22.1485L164.44 22.1586V18.5258H166.24V27.4837H164.44V23.7749L160.935 23.7496V27.4837H159.15V18.5258Z" fill="#18BCF2"/>
<path d="M82.505 34.8306H85.985V43.525L95.035 43.5554V34.8356H98.55V55.6394H95.035V46.6916L85.985 46.6612V55.6394H82.495V34.8306H82.505Z" fill="#1D2126"/>
<path d="M108.77 41.1892C110.895 41.1892 112.625 41.8783 113.96 43.2615C115.295 44.6447 115.965 46.4231 115.965 48.5916C115.965 50.7601 115.295 52.5233 113.96 53.9065C112.625 55.2897 110.895 55.9788 108.77 55.9788C106.645 55.9788 104.885 55.2897 103.55 53.9065C102.215 52.5233 101.545 50.75 101.545 48.5916C101.545 46.4079 102.215 44.6295 103.55 43.2564C104.885 41.8833 106.625 41.1943 108.77 41.1892ZM108.77 52.9489C109.905 52.9489 110.83 52.5436 111.54 51.7329C112.25 50.9223 112.605 49.8684 112.605 48.5663C112.605 47.2692 112.25 46.2153 111.54 45.4148C110.83 44.6092 109.91 44.2089 108.77 44.214C107.61 44.214 106.67 44.6143 105.96 45.4148C105.25 46.2153 104.89 47.2692 104.89 48.5663C104.89 49.8633 105.245 50.9223 105.96 51.7329C106.675 52.5436 107.61 52.9489 108.77 52.9489Z" fill="#1D2126"/>
<path d="M139.69 46.6914V55.6392H136.455V47.2032C136.455 46.2304 136.21 45.4704 135.715 44.9232C135.22 44.376 134.545 44.1024 133.695 44.1024C132.79 44.1024 132.065 44.4013 131.525 44.9992C130.985 45.597 130.715 46.433 130.715 47.5122V55.6341H127.455V47.2032C127.455 46.2304 127.215 45.4704 126.735 44.9232C126.255 44.376 125.59 44.1024 124.735 44.1024C123.83 44.1024 123.1 44.4013 122.55 44.9992C122 45.597 121.725 46.433 121.725 47.5122V55.6341H118.4V41.5842H121.495L121.605 42.932C122.41 41.7362 123.725 41.1384 125.545 41.1384C126.605 41.1384 127.525 41.3613 128.305 41.8072C129.08 42.253 129.7 42.932 130.075 43.7528C130.41 42.9421 131.005 42.2632 131.765 41.8325C132.545 41.3664 133.48 41.1333 134.56 41.1333C136.135 41.1333 137.385 41.6248 138.31 42.6077C139.235 43.5906 139.695 44.9485 139.69 46.6864V46.6914Z" fill="#1D2126"/>
<path d="M155.805 49.8481H145.175C145.285 50.907 145.68 51.7126 146.355 52.2699C147.035 52.8273 147.895 53.1059 148.935 53.1009C150.63 53.1009 151.815 52.3865 152.49 50.9627L155.265 52.0774C154.765 53.2833 153.905 54.2966 152.8 54.9705C151.675 55.6697 150.385 56.0142 148.935 56.0142C146.885 56.0142 145.22 55.3353 143.945 53.9723C142.67 52.6145 142.03 50.831 142.03 48.622C142.03 46.4129 142.675 44.6193 143.96 43.2361C145.245 41.8529 146.93 41.1638 149.005 41.1638C151.08 41.1638 152.69 41.8478 153.935 43.2108C155.18 44.5737 155.8 46.3673 155.8 48.5966V49.843L155.805 49.8481ZM145.23 47.482H152.425C152.36 46.342 152.02 45.4705 151.405 44.8726C150.79 44.2748 149.955 43.9758 148.91 43.986C147.88 43.986 147.035 44.29 146.38 44.898C145.725 45.506 145.34 46.3673 145.23 47.487V47.482Z" fill="#1D2126"/>
<path d="M177.215 50.7955H169.4L167.71 55.6392H164.11L171.525 34.8354H175.125L182.555 55.6392H178.875L177.21 50.7955H177.215ZM176.2 47.801L173.33 39.4765L170.43 47.801H176.2Z" fill="#1D2126"/>
<path d="M189.075 53.2984C189.76 53.2984 190.305 53.1616 190.7 52.888C190.895 52.7563 191.055 52.5739 191.16 52.3611C191.265 52.1483 191.31 51.9102 191.3 51.672C191.3 50.9222 190.8 50.4206 189.805 50.1672L187.895 49.6504C185.27 48.9259 183.955 47.5579 183.955 45.5464C183.955 44.2595 184.415 43.2056 185.34 42.3848C186.265 41.5691 187.51 41.1587 189.075 41.1587C190.475 41.1587 191.65 41.483 192.59 42.1315C193.045 42.4304 193.435 42.8256 193.735 43.2816C194.035 43.7427 194.235 44.2595 194.33 44.8016L191.35 45.516C191.325 45.2779 191.25 45.0448 191.13 44.8371C191.01 44.6294 190.85 44.447 190.655 44.3051C190.225 43.996 189.705 43.839 189.18 43.8592C188.585 43.8592 188.105 44.0112 187.74 44.3102C187.565 44.447 187.42 44.6294 187.325 44.832C187.23 45.0347 187.18 45.2627 187.19 45.4856C187.19 45.668 187.22 45.8504 187.29 46.0176C187.36 46.1848 187.465 46.3368 187.6 46.4584C187.875 46.7168 188.3 46.9246 188.875 47.0816L190.755 47.5528C192.01 47.8974 192.965 48.4142 193.625 49.1134C193.95 49.4528 194.205 49.8582 194.37 50.299C194.54 50.7398 194.62 51.211 194.605 51.6872C194.605 53.0046 194.115 54.0534 193.135 54.8336C192.155 55.6139 190.805 56.004 189.085 56.004C187.49 56.004 186.215 55.6494 185.255 54.94C184.79 54.6056 184.4 54.18 184.105 53.6835C183.81 53.187 183.625 52.6398 183.55 52.0672L186.585 51.5251C186.605 51.7835 186.68 52.0368 186.805 52.2598C186.935 52.4827 187.11 52.6803 187.32 52.8272C187.765 53.1363 188.345 53.2883 189.065 53.2883L189.075 53.2984Z" fill="#1D2126"/>
<path d="M201.675 53.2984C202.365 53.2984 202.905 53.1566 203.305 52.888C203.5 52.7563 203.655 52.5739 203.76 52.3611C203.865 52.1483 203.91 51.9102 203.9 51.672C203.9 50.9222 203.4 50.4206 202.405 50.1672L200.495 49.6504C197.87 48.9259 196.555 47.5579 196.555 45.5464C196.555 44.2595 197.015 43.2056 197.94 42.3848C198.865 41.5691 200.11 41.1587 201.675 41.1587C203.075 41.1587 204.25 41.483 205.19 42.1315C205.645 42.4304 206.035 42.8256 206.335 43.2816C206.635 43.7427 206.835 44.2595 206.93 44.8016L203.95 45.516C203.925 45.2779 203.85 45.0448 203.73 44.8371C203.61 44.6294 203.45 44.447 203.255 44.3051C202.825 43.996 202.305 43.839 201.78 43.8592C201.185 43.8592 200.705 44.0112 200.34 44.3102C200.165 44.447 200.025 44.6294 199.925 44.832C199.83 45.0347 199.785 45.2627 199.79 45.4856C199.79 45.668 199.82 45.8504 199.89 46.0176C199.96 46.1848 200.065 46.3368 200.2 46.4584C200.48 46.7168 200.905 46.9246 201.48 47.0816L203.36 47.5528C204.615 47.8974 205.57 48.4142 206.23 49.1134C206.555 49.4528 206.81 49.8582 206.975 50.299C207.145 50.7398 207.225 51.211 207.21 51.6872C207.21 53.0046 206.72 54.0534 205.74 54.8336C204.76 55.6139 203.41 56.004 201.69 56.004C200.095 56.004 198.82 55.6494 197.86 54.94C197.395 54.6056 197.005 54.18 196.71 53.6835C196.415 53.187 196.23 52.6398 196.155 52.0672L199.19 51.5251C199.21 51.7835 199.285 52.0368 199.41 52.2598C199.535 52.4827 199.715 52.6803 199.925 52.8272C200.365 53.1363 200.945 53.2883 201.67 53.2883L201.675 53.2984Z" fill="#1D2126"/>
<path d="M209.33 36.7153C209.33 36.4315 209.375 36.1529 209.48 35.8945C209.585 35.631 209.74 35.3979 209.935 35.1953C210.13 34.9926 210.365 34.8406 210.62 34.7342C210.875 34.6278 211.155 34.5771 211.43 34.5771C211.705 34.5771 211.98 34.6278 212.235 34.7342C212.49 34.8406 212.72 35.0027 212.91 35.2054C213.305 35.6057 213.525 36.1478 213.525 36.7102C213.525 37.2726 213.305 37.8147 212.91 38.215C212.72 38.4177 212.49 38.5798 212.235 38.6913C211.98 38.8028 211.705 38.8534 211.43 38.8483C211.155 38.8483 210.88 38.7977 210.625 38.6862C210.37 38.5747 210.14 38.4177 209.95 38.2099C209.755 38.0174 209.595 37.7793 209.49 37.5259C209.385 37.2675 209.33 36.9889 209.33 36.7102V36.7153ZM213.095 41.5844V55.6393H209.77V41.5793H213.095V41.5844Z" fill="#1D2126"/>
<path d="M221.135 53.2984C221.82 53.2984 222.365 53.1616 222.76 52.888C222.955 52.7563 223.115 52.5739 223.22 52.3611C223.325 52.1483 223.375 51.9102 223.36 51.672C223.36 50.9222 222.86 50.4206 221.86 50.1672L219.95 49.6504C217.325 48.9259 216.01 47.5579 216.01 45.5464C216.01 44.2595 216.47 43.2056 217.395 42.3848C218.32 41.5691 219.565 41.1587 221.13 41.1587C222.53 41.1587 223.705 41.483 224.645 42.1315C225.1 42.4304 225.49 42.8256 225.79 43.2867C226.09 43.7478 226.29 44.2646 226.385 44.8067L223.405 45.5211C223.38 45.283 223.305 45.0499 223.185 44.8422C223.065 44.6344 222.905 44.452 222.71 44.3102C222.28 44.0011 221.76 43.8491 221.235 43.8643C220.64 43.8643 220.16 44.0163 219.79 44.3152C219.615 44.452 219.475 44.6344 219.38 44.8371C219.285 45.0398 219.24 45.2678 219.245 45.4907C219.245 45.6731 219.275 45.8555 219.345 46.0227C219.415 46.1899 219.52 46.3419 219.655 46.4635C219.93 46.7219 220.355 46.9296 220.93 47.0867L222.81 47.5579C224.065 47.9024 225.02 48.4192 225.68 49.1184C226.005 49.4579 226.26 49.8632 226.425 50.304C226.595 50.7448 226.675 51.216 226.66 51.6923C226.66 53.0096 226.17 54.0584 225.19 54.8387C224.21 55.619 222.86 56.0091 221.14 56.0091C219.545 56.0091 218.27 55.6544 217.31 54.9451C216.845 54.6107 216.455 54.1851 216.16 53.6886C215.865 53.192 215.68 52.6398 215.605 52.0723L218.64 51.5302C218.66 51.7886 218.735 52.0419 218.86 52.2648C218.985 52.4878 219.165 52.6854 219.375 52.8323C219.815 53.1414 220.395 53.2934 221.12 53.2934L221.135 53.2984Z" fill="#1D2126"/>
<path d="M236.605 55.6341C235.815 55.8267 235.005 55.9331 234.19 55.9533C232.79 55.9533 231.695 55.5632 230.915 54.7829C230.13 54.0027 229.74 52.8424 229.74 51.3072V44.4317H227.61V41.5843H229.74V37.1965H233.035V41.5792H236.235V44.4267H233.035V50.6992C233.035 52.2192 233.615 52.9792 234.78 52.9792C235.26 52.9589 235.735 52.8576 236.185 52.6853L236.605 55.6341Z" fill="#1D2126"/>
<path d="M247.735 55.6342C247.615 55.1072 247.535 54.5702 247.5 54.0331C247.07 54.6614 246.475 55.1579 245.79 55.472C244.985 55.8419 244.11 56.0243 243.23 56.0091C241.71 56.0091 240.49 55.5987 239.575 54.7779C238.66 53.9571 238.2 52.8475 238.205 51.444C238.205 50.071 238.655 48.9968 239.555 48.2216C240.455 47.4464 241.69 47.0614 243.255 47.0614H247.425V46.5192C247.425 45.6376 247.17 44.979 246.665 44.5432C246.155 44.1075 245.445 43.8896 244.53 43.8896C242.91 43.8896 241.745 44.5736 241.04 45.9467L238.625 44.5128C239.795 42.2784 241.825 41.1587 244.71 41.1587C246.455 41.1587 247.89 41.6147 249.01 42.5216C250.125 43.4286 250.69 44.908 250.7 46.96V52.5536C250.7 54.1395 250.78 55.163 250.945 55.6291H247.745L247.735 55.6342ZM247.455 49.387H244.035C243.26 49.387 242.655 49.5694 242.225 49.9291C242.01 50.1115 241.84 50.3395 241.73 50.5979C241.62 50.8563 241.565 51.135 241.58 51.4187C241.58 52.0774 241.8 52.579 242.24 52.9235C242.68 53.268 243.305 53.4352 244.12 53.4352C245.1 53.4352 245.9 53.1211 246.525 52.4979C247.15 51.8696 247.46 50.9424 247.46 49.7062V49.387H247.455Z" fill="#1D2126"/>
<path d="M266.65 46.9651V55.6341H263.34V47.6845C263.34 46.3469 263.03 45.4349 262.405 44.9435C261.82 44.452 261.075 44.1936 260.315 44.2088C259.875 44.1936 259.435 44.2696 259.02 44.4317C258.605 44.5939 258.23 44.832 257.91 45.1411C257.27 45.7643 256.95 46.6459 256.95 47.8011V55.6392H253.625V41.5843H256.74L256.85 43.0992C257.28 42.476 257.875 41.9845 258.565 41.6856C259.335 41.3309 260.175 41.1536 261.025 41.1637C262.82 41.1637 264.205 41.6653 265.18 42.6736C266.155 43.6819 266.64 45.1107 266.64 46.9651H266.65Z" fill="#1D2126"/>
<path d="M277.265 55.6341C276.475 55.8267 275.665 55.9331 274.85 55.9483C273.45 55.9483 272.36 55.5581 271.575 54.7779C270.79 53.9976 270.4 52.8373 270.4 51.3021V44.4317H268.27V41.5843H270.4V37.1965H273.695V41.5792H276.895V44.4267H273.695V50.6992C273.695 52.2192 274.275 52.9792 275.44 52.9792C275.92 52.9589 276.395 52.8576 276.845 52.6853L277.265 55.6341Z" fill="#1D2126"/>
</g>
<defs>
<clipPath id="clip0_347_3462">
<rect width="300" height="76" fill="white" transform="translate(0 0.123779)"/>
</clipPath>
</defs>
</svg>
