<svg width="0" height="0" style="position: absolute;">
  <symbol fill="none" xmlns="http://www.w3.org/2000/svg" viewBox="0 0 60 60" id="approval-done">
    <g clip-path="url(#clip0_412_2707)">
      <path d="M29.9997 25.9391C33.5904 25.9391 36.5013 23.0079 36.5013 19.392C36.5013 15.7762 33.5904 12.845 29.9997 12.845C26.4089 12.845 23.498 15.7762 23.498 19.392C23.498 23.0079 26.4089 25.9391 29.9997 25.9391Z" fill="url(#paint0_linear_412_2707)" stroke="url(#paint1_linear_412_2707)" stroke-miterlimit="10" stroke-linecap="round"></path>
      <path d="M21.8257 45.1344C21.8257 45.3721 21.629 45.5702 21.3929 45.5702H15.3732C15.1372 45.5702 14.9404 45.3721 14.9404 45.1344V42.5393C14.9404 42.3016 15.0781 41.9649 15.2453 41.7965L18.0781 38.9439C18.2453 38.7755 18.5208 38.7755 18.688 38.9439L21.5208 41.7965C21.688 41.9649 21.8257 42.3016 21.8257 42.5393V45.1344Z" fill="url(#paint2_linear_412_2707)"></path>
      <path d="M47.4192 35.2693H12.5799C11.3902 35.2693 10.4258 36.2404 10.4258 37.4384V46.9569C10.4258 48.1549 11.3902 49.1261 12.5799 49.1261H47.4192C48.6089 49.1261 49.5733 48.1549 49.5733 46.9569V37.4384C49.5733 36.2404 48.6089 35.2693 47.4192 35.2693Z" stroke="url(#paint3_linear_412_2707)" stroke-miterlimit="10" stroke-linecap="round"></path>
      <path d="M25.3867 44.4114H43.4457" stroke="url(#paint4_linear_412_2707)" stroke-miterlimit="10" stroke-linecap="round"></path>
      <path d="M25.3867 40.7863H32.1736" stroke="url(#paint5_linear_412_2707)" stroke-miterlimit="10" stroke-linecap="round"></path>
      <path d="M56.1446 4.49524H3.85612C1.99827 4.49524 0.492188 6.01184 0.492188 7.88267V52.1173C0.492188 53.9882 1.99827 55.5048 3.85612 55.5048H56.1446C58.0025 55.5048 59.5086 53.9882 59.5086 52.1173V7.88267C59.5086 6.01184 58.0025 4.49524 56.1446 4.49524Z" stroke="url(#paint6_linear_412_2707)" stroke-miterlimit="10" stroke-linecap="round"></path>
    </g>
    <defs>
      <linearGradient id="paint0_linear_412_2707" x1="23.498" y1="15.3811" x2="36.5013" y2="15.3811" gradientUnits="userSpaceOnUse">
        <stop stop-color="#0898C7"></stop>
        <stop offset="1" stop-color="#006BA8"></stop>
      </linearGradient>
      <linearGradient id="paint1_linear_412_2707" x1="23.498" y1="15.3811" x2="36.5013" y2="15.3811" gradientUnits="userSpaceOnUse">
        <stop stop-color="#0898C7"></stop>
        <stop offset="1" stop-color="#006BA8"></stop>
      </linearGradient>
      <linearGradient id="paint2_linear_412_2707" x1="14.9404" y1="40.1255" x2="21.8257" y2="40.1255" gradientUnits="userSpaceOnUse">
        <stop stop-color="#0898C7"></stop>
        <stop offset="1" stop-color="#006BA8"></stop>
      </linearGradient>
      <linearGradient id="paint3_linear_412_2707" x1="10.4258" y1="37.9531" x2="49.5733" y2="37.9531" gradientUnits="userSpaceOnUse">
        <stop stop-color="#0898C7"></stop>
        <stop offset="1" stop-color="#006BA8"></stop>
      </linearGradient>
      <linearGradient id="paint4_linear_412_2707" x1="25.3867" y1="44.6051" x2="43.4457" y2="44.6051" gradientUnits="userSpaceOnUse">
        <stop stop-color="#0898C7"></sto
        <stop offset="1" stop-color="#006BA8"></stop>
      </linearGradient>
      <linearGradient id="paint5_linear_412_2707" x1="25.3867" y1="40.9799" x2="32.1736" y2="40.9799" gradientUnits="userSpaceOnUse">
        <stop stop-color="#0898C7"></stop>
        <stop offset="1" stop-color="#006BA8"></stop>
      </linearGradient>
      <linearGradient id="paint6_linear_412_2707" x1="0.492188" y1="14.375" x2="59.5086" y2="14.375" gradientUnits="userSpaceOnUse">
        <stop stop-color="#0898C7"></stop>
        <stop offset="1" stop-color="#006BA8"></stop>
      </linearGradient>
      <clipPath id="clip0_412_2707">
        <rect width="60" height="52" fill="white" transform="translate(0 4)"></rect>
      </clipPath>
    </defs>
  </symbol>
  <symbol fill="none" xmlns="http://www.w3.org/2000/svg" viewBox="0 0 60 60" id="approval-upcoming">
    <g clip-path="url(#clip0_412_2664)">
      <path d="M29.9997 25.9391C33.5904 25.9391 36.5013 23.0079 36.5013 19.392C36.5013 15.7762 33.5904 12.845 29.9997 12.845C26.4089 12.845 23.498 15.7762 23.498 19.392C23.498 23.0079 26.4089 25.9391 29.9997 25.9391Z" fill="#72787E" stroke="#72787E" stroke-miterlimit="10" stroke-linecap="round"></path>
      <path d="M21.8257 45.1344C21.8257 45.3721 21.629 45.5702 21.3929 45.5702H15.3732C15.1372 45.5702 14.9404 45.3721 14.9404 45.1344V42.5393C14.9404 42.3016 15.0781 41.9649 15.2453 41.7965L18.0781 38.9439C18.2453 38.7755 18.5208 38.7755 18.688 38.9439L21.5208 41.7965C21.688 41.9649 21.8257 42.3016 21.8257 42.5393V45.1344Z" fill="#72787E"></path>
      <path d="M47.4192 35.2693H12.5799C11.3902 35.2693 10.4258 36.2404 10.4258 37.4384V46.9569C10.4258 48.1549 11.3902 49.1261 12.5799 49.1261H47.4192C48.6089 49.1261 49.5733 48.1549 49.5733 46.9569V37.4384C49.5733 36.2404 48.6089 35.2693 47.4192 35.2693Z" stroke="#72787E" stroke-miterlimit="10" stroke-linecap="round"></path>
      <path d="M25.3867 44.4114H43.4457" stroke="#72787E" stroke-miterlimit="10" stroke-linecap="round"></path>
      <path d="M25.3867 40.7863H32.1736" stroke="#72787E" stroke-miterlimit="10" stroke-linecap="round"></path>
      <path d="M56.1446 4.49524H3.85612C1.99827 4.49524 0.492188 6.01184 0.492188 7.88267V52.1173C0.492188 53.9882 1.99827 55.5048 3.85612 55.5048H56.1446C58.0025 55.5048 59.5086 53.9882 59.5086 52.1173V7.88267C59.5086 6.01184 58.0025 4.49524 56.1446 4.49524Z" stroke="#72787E" stroke-miterlimit="10" stroke-linecap="round"></path>
    </g>
    <defs>
      <clipPath id="clip0_412_2664">
        <rect width="60" height="52" fill="white" transform="translate(0 4)"></rect>
      </clipPath>
    </defs>
  </symbol>
  <symbol fill="none" xmlns="http://www.w3.org/2000/svg" viewBox="0 0 60 60" id="choose-current">
    <path d="M14.1908 0.505428C13.5351 -0.168476 12.4621 -0.168476 11.8091 0.505428L1.19227 11.4163C0.536521 12.0902 0 13.4205 0 14.3715V24.2671C0 25.2182 0.757943 26 1.68621 26H24.3138C25.2392 26 26 25.2211 26 24.2671V14.3715C26 13.4205 25.4635 12.0902 24.8077 11.4163L14.1908 0.505428Z" fill="white"></path>
    <path d="M46.1675 0.854122L46.1683 0.853343C46.6243 0.382658 47.3726 0.381521 47.8325 0.854121L58.4494 11.7649C58.7184 12.0414 58.9857 12.4803 59.1861 12.977C59.3863 13.4734 59.5 13.9787 59.5 14.3715V24.2671C59.5 24.9573 58.9508 25.5 58.3138 25.5H35.6862C35.0474 25.5 34.5 24.9555 34.5 24.2671V14.3715C34.5 13.9787 34.6137 13.4734 34.8139 12.977C35.0143 12.4803 35.2816 12.0414 35.5506 11.7649L46.1675 0.854122Z" stroke="white"></path>
    <path d="M12.1675 34.8541L12.1683 34.8533C12.6243 34.3827 13.3726 34.3815 13.8325 34.8541L24.4494 45.7649C24.7184 46.0414 24.9857 46.4803 25.1861 46.977C25.3863 47.4734 25.5 47.9787 25.5 48.3715V58.2671C25.5 58.9573 24.9508 59.5 24.3138 59.5H1.68621C1.04741 59.5 0.5 58.9555 0.5 58.2671V48.3715C0.5 47.9787 0.613689 47.4734 0.813922 46.977C1.01429 46.4803 1.28163 46.0414 1.55062 45.7649L12.1675 34.8541Z" stroke="white"></path>
    <path d="M46.1675 34.8541L46.1683 34.8533C46.6243 34.3827 47.3726 34.3815 47.8325 34.8541L58.4494 45.7649C58.7184 46.0414 58.9857 46.4803 59.1861 46.977C59.3863 47.4734 59.5 47.9787 59.5 48.3715V58.2671C59.5 58.9573 58.9508 59.5 58.3138 59.5H35.6862C35.0474 59.5 34.5 58.9555 34.5 58.2671V48.3715C34.5 47.9787 34.6137 47.4734 34.8139 46.977C35.0143 46.4803 35.2816 46.0414 35.5506 45.7649L46.1675 34.8541Z" stroke="white"></path>
  </symbol>
  <symbol fill="none" xmlns="http://www.w3.org/2000/svg" viewBox="0 0 60 60" id="choose-done">
    <path d="M14.1908 0.505428C13.5351 -0.168476 12.4621 -0.168476 11.8091 0.505428L1.19227 11.4163C0.536521 12.0902 0 13.4205 0 14.3715V24.2671C0 25.2182 0.757943 26 1.68621 26H24.3138C25.2392 26 26 25.2211 26 24.2671V14.3715C26 13.4205 25.4635 12.0902 24.8077 11.4163L14.1908 0.505428Z" fill="url(#paint0_linear_412_2674)"></path>
    <path d="M46.1675 0.854122L46.1683 0.853343C46.6243 0.382658 47.3726 0.381521 47.8325 0.854121L58.4494 11.7649C58.7184 12.0414 58.9857 12.4803 59.1861 12.977C59.3863 13.4734 59.5 13.9787 59.5 14.3715V24.2671C59.5 24.9573 58.9508 25.5 58.3138 25.5H35.6862C35.0474 25.5 34.5 24.9555 34.5 24.2671V14.3715C34.5 13.9787 34.6137 13.4734 34.8139 12.977C35.0143 12.4803 35.2816 12.0414 35.5506 11.7649L46.1675 0.854122Z" stroke="url(#paint1_linear_412_2674)"></path>
    <path d="M12.1675 34.8541L12.1683 34.8533C12.6243 34.3827 13.3726 34.3815 13.8325 34.8541L24.4494 45.7649C24.7184 46.0414 24.9857 46.4803 25.1861 46.977C25.3863 47.4734 25.5 47.9787 25.5 48.3715V58.2671C25.5 58.9573 24.9508 59.5 24.3138 59.5H1.68621C1.04741 59.5 0.5 58.9555 0.5 58.2671V48.3715C0.5 47.9787 0.613689 47.4734 0.813922 46.977C1.01429 46.4803 1.28163 46.0414 1.55062 45.7649L12.1675 34.8541Z" stroke="url(#paint2_linear_412_2674)"></path>
    <path d="M46.1675 34.8541L46.1683 34.8533C46.6243 34.3827 47.3726 34.3815 47.8325 34.8541L58.4494 45.7649C58.7184 46.0414 58.9857 46.4803 59.1861 46.977C59.3863 47.4734 59.5 47.9787 59.5 48.3715V58.2671C59.5 58.9573 58.9508 59.5 58.3138 59.5H35.6862C35.0474 59.5 34.5 58.9555 34.5 58.2671V48.3715C34.5 47.9787 34.6137 47.4734 34.8139 46.977C35.0143 46.4803 35.2816 46.0414 35.5506 45.7649L46.1675 34.8541Z" stroke="url(#paint3_linear_412_2674)"></path>
    <defs>
      <linearGradient id="paint0_linear_412_2674" x1="0" y1="5.03579" x2="26" y2="5.03579" gradientUnits="userSpaceOnUse">
        <stop stop-color="#0898C7"></stop>
        <stop offset="1" stop-color="#006BA8"></stop>
      </linearGradient>
      <linearGradient id="paint1_linear_412_2674" x1="34" y1="5.03579" x2="60" y2="5.03579" gradientUnits="userSpaceOnUse">
        <stop stop-color="#0898C7"></stop>
        <stop offset="1" stop-color="#006BA8"></stop>
      </linearGradient>
      <linearGradient id="paint2_linear_412_2674" x1="0" y1="39.0358" x2="26" y2="39.0358" gradientUnits="userSpaceOnUse">
        <stop stop-color="#0898C7"></stop>
        <stop offset="1" stop-color="#006BA8"></stop>
      </linearGradient>
      <linearGradient id="paint3_linear_412_2674" x1="34" y1="39.0358" x2="60" y2="39.0358" gradientUnits="userSpaceOnUse">
        <stop stop-color="#0898C7"></stop>
        <stop offset="1" stop-color="#006BA8"></stop>
      </linearGradient>
    </defs>
  </symbol>
  <symbol fill="none" xmlns="http://www.w3.org/2000/svg" viewBox="0 0 60 60" id="choose-upcoming">
    <path d="M14.1908 0.505428C13.5351 -0.168476 12.4621 -0.168476 11.8091 0.505428L1.19227 11.4163C0.536521 12.0902 0 13.4205 0 14.3715V24.2671C0 25.2182 0.757943 26 1.68621 26H24.3138C25.2392 26 26 25.2211 26 24.2671V14.3715C26 13.4205 25.4635 12.0902 24.8077 11.4163L14.1908 0.505428Z" fill="#72787E"></path>
    <path d="M46.1675 0.854122L46.1683 0.853343C46.6243 0.382658 47.3726 0.381521 47.8325 0.854121L58.4494 11.7649C58.7184 12.0414 58.9857 12.4803 59.1861 12.977C59.3863 13.4734 59.5 13.9787 59.5 14.3715V24.2671C59.5 24.9573 58.9508 25.5 58.3138 25.5H35.6862C35.0474 25.5 34.5 24.9555 34.5 24.2671V14.3715C34.5 13.9787 34.6137 13.4734 34.8139 12.977C35.0143 12.4803 35.2816 12.0414 35.5506 11.7649L46.1675 0.854122Z" stroke="#72787E"></path>
    <path d="M12.1675 34.8541L12.1683 34.8533C12.6243 34.3827 13.3726 34.3815 13.8325 34.8541L24.4494 45.7649C24.7184 46.0414 24.9857 46.4803 25.1861 46.977C25.3863 47.4734 25.5 47.9787 25.5 48.3715V58.2671C25.5 58.9573 24.9508 59.5 24.3138 59.5H1.68621C1.04741 59.5 0.5 58.9555 0.5 58.2671V48.3715C0.5 47.9787 0.613689 47.4734 0.813922 46.977C1.01429 46.4803 1.28163 46.0414 1.55062 45.7649L12.1675 34.8541Z" stroke="#72787E"></path>
    <path d="M46.1675 34.8541L46.1683 34.8533C46.6243 34.3827 47.3726 34.3815 47.8325 34.8541L58.4494 45.7649C58.7184 46.0414 58.9857 46.4803 59.1861 46.977C59.3863 47.4734 59.5 47.9787 59.5 48.3715V58.2671C59.5 58.9573 58.9508 59.5 58.3138 59.5H35.6862C35.0474 59.5 34.5 58.9555 34.5 58.2671V48.3715C34.5 47.9787 34.6137 47.4734 34.8139 46.977C35.0143 46.4803 35.2816 46.0414 35.5506 45.7649L46.1675 34.8541Z" stroke="#72787E"></path>
  </symbol>
  <symbol fill="none" xmlns="http://www.w3.org/2000/svg" viewBox="0 0 60 60" id="fee-current">
    <path fill-rule="evenodd" clip-rule="evenodd" d="M0 11.4653C0 8.89055 2.08818 6.80237 4.66295 6.80237H42.2778C44.8525 6.80237 46.9407 8.89055 46.9407 11.4653V13.7639V20.2149V42.2478C46.9407 44.8226 44.8525 46.9108 42.2778 46.9108H40.0003C39.7242 46.9108 39.5003 46.6869 39.5003 46.4108C39.5003 46.1346 39.7242 45.9108 40.0003 45.9108H42.2778C44.3003 45.9108 45.9407 44.2703 45.9407 42.2478V20.7149H34.8417C33.7045 20.7149 32.6125 21.1698 31.8045 21.9678C31.8041 21.9681 31.8038 21.9685 31.8034 21.9688L30.7781 22.9942C29.7827 23.9895 28.4369 24.5389 27.0348 24.5389H19.8953C18.4907 24.5389 17.1468 23.9773 16.1542 22.9963L16.1521 22.9942L16.1521 22.9942L15.1246 21.9667C14.3192 21.1613 13.2287 20.7149 12.0885 20.7149H1V42.2372C1 44.2597 2.64047 45.9002 4.66295 45.9002H23.1473C23.4234 45.9002 23.6473 46.124 23.6473 46.4002C23.6473 46.6763 23.4234 46.9002 23.1473 46.9002H4.66295C2.08818 46.9002 0 44.812 0 42.2372V20.2149V13.7639V11.4653ZM1 14.2639V19.7149H12.0885C13.4905 19.7149 14.8364 20.2643 15.8317 21.2596L16.8571 22.285C16.8574 22.2854 16.8578 22.2857 16.8581 22.286C17.6661 23.084 18.7581 23.5389 19.8953 23.5389H27.0348C28.175 23.5389 29.2655 23.0925 30.0709 22.2871L31.0984 21.2596L31.1005 21.2575C32.0932 20.2766 33.4371 19.7149 34.8417 19.7149H45.9407V14.2639H1ZM45.9407 13.2639H1V11.4653C1 9.44283 2.64047 7.80237 4.66295 7.80237H42.2778C44.3003 7.80237 45.9407 9.44283 45.9407 11.4653V13.2639ZM32.0982 43.3367C32.3743 43.3367 32.5982 43.5606 32.5982 43.8367V51.2839L35.4097 48.4724C35.6049 48.2771 35.9215 48.2771 36.1168 48.4724C36.3121 48.6676 36.3121 48.9842 36.1168 49.1795L32.4517 52.8446L32.0987 53.1976L31.7451 52.8451L28.0694 49.18C27.8739 48.985 27.8734 48.6684 28.0684 48.4729C28.2634 48.2773 28.58 48.2769 28.7755 48.4719L31.5982 51.2864V43.8367C31.5982 43.5606 31.822 43.3367 32.0982 43.3367Z" fill="white"></path>
  </symbol>
  <symbol fill="none" xmlns="http://www.w3.org/2000/svg" viewBox="0 0 60 60" id="feedback-current">
    <g clip-path="url(#clip0_412_2743)">
      <path d="M40.3104 46.97H14.8304C12.6604 46.97 10.9004 45.21 10.9004 43.04V21.54C10.9004 19.37 12.6604 17.61 14.8304 17.61H50.3404C52.5104 17.61 54.2704 19.37 54.2704 21.54V51.81C54.2704 52.79 53.1304 53.33 52.3704 52.71L47.3104 48.61C46.0004 47.55 44.3704 46.97 42.6904 46.97H40.3104Z" stroke="white" stroke-miterlimit="10" stroke-linecap="round"></path>
      <path d="M43.87 14.95V10.96C43.87 8.79003 42.11 7.03003 39.94 7.03003H4.43C2.26 7.03003 0.5 8.79003 0.5 10.96V41.23C0.5 42.21 1.64 42.75 2.4 42.13L7.46 38.03" stroke="white" stroke-miterlimit="10" stroke-linecap="round"></path>
      <path d="M30.21 32.99L32.5 35.56L36.75 25.74" stroke="white" stroke-miterlimit="10" stroke-linecap="round"></path>
      <path d="M39.2397 37.9401C39.2397 38.4001 38.8697 38.7701 38.4097 38.7701H26.7597C26.2997 38.7701 25.9297 38.4001 25.9297 37.9401V32.9501C25.9297 32.4901 26.1897 31.8501 26.5197 31.5301L31.9997 26.0501C32.3197 25.7301 32.8497 25.7301 33.1797 26.0501L38.6597 31.5301C38.9797 31.8501 39.2497 32.4901 39.2497 32.9501V37.9401H39.2397Z" stroke="white" stroke-miterlimit="10" stroke-linecap="round"></path>
    </g>
    <defs>
      <clipPath id="clip0_412_2743">
        <rect width="54.77" height="46.94" fill="white" transform="translate(0 6.53003)"></rect>
      </clipPath>
    </defs>
  </symbol>
  <symbol fill="none" xmlns="http://www.w3.org/2000/svg" viewBox="0 0 60 60" id="feedback-upcoming">
    <g clip-path="url(#clip0_412_2658)">
      <path d="M40.3104 46.97H14.8304C12.6604 46.97 10.9004 45.21 10.9004 43.04V21.54C10.9004 19.37 12.6604 17.61 14.8304 17.61H50.3404C52.5104 17.61 54.2704 19.37 54.2704 21.54V51.81C54.2704 52.79 53.1304 53.33 52.3704 52.71L47.3104 48.61C46.0004 47.55 44.3704 46.97 42.6904 46.97H40.3104Z" stroke="#72787E" stroke-miterlimit="10" stroke-linecap="round"></path>
      <path d="M43.87 14.95V10.96C43.87 8.79003 42.11 7.03003 39.94 7.03003H4.43C2.26 7.03003 0.5 8.79003 0.5 10.96V41.23C0.5 42.21 1.64 42.75 2.4 42.13L7.46 38.03" stroke="#72787E" stroke-miterlimit="10" stroke-linecap="round"></path>
      <path d="M30.21 32.99L32.5 35.56L36.75 25.74" stroke="#72787E" stroke-miterlimit="10" stroke-linecap="round"></path>
      <path d="M39.2397 37.9401C39.2397 38.4001 38.8697 38.7701 38.4097 38.7701H26.7597C26.2997 38.7701 25.9297 38.4001 25.9297 37.9401V32.9501C25.9297 32.4901 26.1897 31.8501 26.5197 31.5301L31.9997 26.0501C32.3197 25.7301 32.8497 25.7301 33.1797 26.0501L38.6597 31.5301C38.9797 31.8501 39.2497 32.4901 39.2497 32.9501V37.9401H39.2397Z" stroke="#72787E" stroke-miterlimit="10" stroke-linecap="round"></path>
    </g>
    <defs>
      <clipPath id="clip0_412_2658">
        <rect width="54.77" height="46.94" fill="white" transform="translate(0 6.53003)"></rect>
      </clipPath>
    </defs>
  </symbol>
  <symbol fill="none" xmlns="http://www.w3.org/2000/svg" viewBox="0 0 60 60" id="fee-done">
    <path fill-rule="evenodd" clip-rule="evenodd" d="M0 11.4653C0 8.89055 2.08818 6.80237 4.66295 6.80237H42.2778C44.8525 6.80237 46.9407 8.89055 46.9407 11.4653V13.7639V20.2149V42.2478C46.9407 44.8226 44.8525 46.9108 42.2778 46.9108H40.0003C39.7242 46.9108 39.5003 46.6869 39.5003 46.4108C39.5003 46.1346 39.7242 45.9108 40.0003 45.9108H42.2778C44.3003 45.9108 45.9407 44.2703 45.9407 42.2478V20.7149H34.8417C33.7045 20.7149 32.6125 21.1698 31.8045 21.9678C31.8041 21.9681 31.8038 21.9685 31.8034 21.9688L30.7781 22.9942C29.7827 23.9895 28.4369 24.5389 27.0348 24.5389H19.8953C18.4907 24.5389 17.1468 23.9773 16.1542 22.9963L16.1521 22.9942L16.1521 22.9942L15.1246 21.9667C14.3192 21.1613 13.2287 20.7149 12.0885 20.7149H1V42.2372C1 44.2597 2.64047 45.9002 4.66295 45.9002H23.1473C23.4234 45.9002 23.6473 46.124 23.6473 46.4002C23.6473 46.6763 23.4234 46.9002 23.1473 46.9002H4.66295C2.08818 46.9002 0 44.812 0 42.2372V20.2149V13.7639V11.4653ZM1 14.2639V19.7149H12.0885C13.4905 19.7149 14.8364 20.2643 15.8317 21.2596L16.8571 22.285C16.8574 22.2854 16.8578 22.2857 16.8581 22.286C17.6661 23.084 18.7581 23.5389 19.8953 23.5389H27.0348C28.175 23.5389 29.2655 23.0925 30.0709 22.2871L31.0984 21.2596L31.1005 21.2575C32.0932 20.2766 33.4371 19.7149 34.8417 19.7149H45.9407V14.2639H1ZM45.9407 13.2639H1V11.4653C1 9.44283 2.64047 7.80237 4.66295 7.80237H42.2778C44.3003 7.80237 45.9407 9.44283 45.9407 11.4653V13.2639ZM32.0982 43.3367C32.3743 43.3367 32.5982 43.5606 32.5982 43.8367V51.2839L35.4097 48.4724C35.6049 48.2771 35.9215 48.2771 36.1168 48.4724C36.3121 48.6676 36.3121 48.9842 36.1168 49.1795L32.4517 52.8446L32.0987 53.1976L31.7451 52.8451L28.0694 49.18C27.8739 48.985 27.8734 48.6684 28.0684 48.4729C28.2634 48.2773 28.58 48.2769 28.7755 48.4719L31.5982 51.2864V43.8367C31.5982 43.5606 31.822 43.3367 32.0982 43.3367Z" fill="url(#paint0_linear_412_2686)"></path>
    <defs>
      <linearGradient id="paint0_linear_412_2686" x1="0" y1="15.7884" x2="46.9407" y2="15.7884" gradientUnits="userSpaceOnUse">
        <stop stop-color="#0898C7"></stop>
        <stop offset="1" stop-color="#006BA8"></stop>
      </linearGradient>
    </defs>
  </symbol>
  <symbol fill="none" xmlns="http://www.w3.org/2000/svg" viewBox="0 0 60 60" id="feedback-done">
    <g clip-path="url(#clip0_412_2701)">
      <path d="M40.3104 46.97H14.8304C12.6604 46.97 10.9004 45.21 10.9004 43.04V21.54C10.9004 19.37 12.6604 17.61 14.8304 17.61H50.3404C52.5104 17.61 54.2704 19.37 54.2704 21.54V51.81C54.2704 52.79 53.1304 53.33 52.3704 52.71L47.3104 48.61C46.0004 47.55 44.3704 46.97 42.6904 46.97H40.3104Z" stroke="url(#paint0_linear_412_2701)" stroke-miterlimit="10" stroke-linecap="round"></path>
      <path d="M43.87 14.95V10.96C43.87 8.79003 42.11 7.03003 39.94 7.03003H4.43C2.26 7.03003 0.5 8.79003 0.5 10.96V41.23C0.5 42.21 1.64 42.75 2.4 42.13L7.46 38.03" stroke="url(#paint1_linear_412_2701)" stroke-miterlimit="10" stroke-linecap="round"></path>
      <path d="M30.21 32.99L32.5 35.56L36.75 25.74" stroke="url(#paint2_linear_412_2701)" stroke-miterlimit="10" stroke-linecap="round"></path>
      <path d="M39.2397 37.9401C39.2397 38.4001 38.8697 38.7701 38.4097 38.7701H26.7597C26.2997 38.7701 25.9297 38.4001 25.9297 37.9401V32.9501C25.9297 32.4901 26.1897 31.8501 26.5197 31.5301L31.9997 26.0501C32.3197 25.7301 32.8497 25.7301 33.1797 26.0501L38.6597 31.5301C38.9797 31.8501 39.2497 32.4901 39.2497 32.9501V37.9401H39.2397Z" stroke="url(#paint3_linear_412_2701)" stroke-miterlimit="10" stroke-linecap="round"></path>
    </g>
    <defs>
      <linearGradient id="paint0_linear_412_2701" x1="10.9004" y1="24.4595" x2="54.2704" y2="24.4595" gradientUnits="userSpaceOnUse">
        <stop stop-color="#0898C7"></stop>
        <stop offset="1" stop-color="#006BA8"></stop>
      </linearGradient>
      <linearGradient id="paint1_linear_412_2701" x1="0.5" y1="13.8795" x2="43.87" y2="13.8795" gradientUnits="userSpaceOnUse">
        <stop stop-color="#0898C7"></stop>
        <stop offset="1" stop-color="#006BA8"></stop>
      </linearGradient>
      <linearGradient id="paint2_linear_412_2701" x1="30.21" y1="27.642" x2="36.75" y2="27.642" gradientUnits="userSpaceOnUse">
        <stop stop-color="#0898C7"></stop>
        <stop offset="1" stop-color="#006BA8"></stop>
      </linearGradient>
      <linearGradient id="paint3_linear_412_2701" x1="25.9297" y1="28.3202" x2="39.2497" y2="28.3202" gradientUnits="userSpaceOnUse">
        <stop stop-color="#0898C7"></stop>
        <stop offset="1" stop-color="#006BA8"></stop>
      </linearGradient>
      <clipPath id="clip0_412_2701">
        <rect width="54.77" height="46.94" fill="white" transform="translate(0 6.53003)"></rect>
      </clipPath>
    </defs>
  </symbol>
  <symbol fill="none" xmlns="http://www.w3.org/2000/svg" viewBox="0 0 60 61" id="sign-current">
    <path fill-rule="evenodd" clip-rule="evenodd" d="M0 0H28.07L41 12.93V61H0V0ZM39.29 12.64L28.36 1.71V12.64H39.29ZM1 60H40V13.64H27.36V1H1V60ZM13.0167 47.1855C12.3236 48.0047 11.5692 48.7713 10.7797 49.48L10.7497 49.5C10.1597 50.04 9.2697 49.16 9.8697 48.62C10.5281 48.0284 11.1653 47.3953 11.7609 46.723C11.2881 46.4856 10.8367 46.1904 10.4197 45.87C7.4797 43.61 6.2997 39.53 6.8597 35.96C7.1297 34.24 7.7797 32.4 9.4097 31.52C11.0397 30.64 13.1497 31.13 14.4897 32.31C17.3297 34.8 17.2497 39.29 15.9197 42.51C15.4021 43.7711 14.7096 44.9613 13.8973 46.0692C14.0518 46.0637 14.2061 46.0445 14.3597 46.01C15.6197 45.73 16.4597 44.46 16.8197 43.3C17.0397 42.62 18.0097 42.77 18.0497 43.47C18.1197 44.74 18.2797 46.08 18.8797 47.21C18.8983 47.2403 18.9262 47.2949 18.9601 47.3615C19.0718 47.5808 19.2493 47.9293 19.3797 47.96C19.7317 48.04 19.9301 47.6784 20.0927 47.382C20.1333 47.308 20.1717 47.238 20.2097 47.18C20.4047 46.875 20.6022 46.5725 20.7997 46.27C20.9972 45.9675 21.1947 45.665 21.3897 45.36C21.5997 45.03 22.0797 44.93 22.3697 45.23C22.4031 45.2648 22.446 45.3119 22.4964 45.3672C22.8229 45.7257 23.4639 46.4293 23.8797 46.36C24.1271 46.3199 24.2806 46.0383 24.424 45.7754C24.495 45.6451 24.5635 45.5195 24.6397 45.43C25.1997 44.75 26.0197 44.59 26.8597 44.81C27.4377 44.9618 27.9783 45.2432 28.5191 45.5247C28.9046 45.7253 29.2902 45.926 29.6897 46.08C30.9797 46.57 32.3397 46.85 33.7097 47.02C34.4997 47.12 34.5097 48.37 33.7097 48.27C32.2297 48.09 30.7597 47.81 29.3597 47.28C29.0919 47.1785 28.7685 47.0055 28.4219 46.8201C27.539 46.3479 26.506 45.7953 25.8597 46.14C25.5453 46.3053 25.3462 46.5713 25.1512 46.832C24.8624 47.2179 24.5824 47.5921 23.9497 47.61C23.2424 47.6317 22.5976 47.1741 22.0605 46.6772C22.0561 46.6849 22.0517 46.6927 22.0474 46.7006C21.2617 48.1019 20.0378 50.285 18.5997 48.93C17.7014 48.0823 17.2593 46.8504 17.0304 45.5938C16.6606 46.0809 16.2127 46.5034 15.6897 46.81C14.8132 47.3213 13.8987 47.3868 13.0167 47.1855ZM12.5371 45.7929C13.4762 44.5947 14.2699 43.2867 14.8197 41.88C15.4997 40.14 15.7597 38.26 15.3597 36.43C14.9197 34.38 13.4697 32.17 11.0497 32.34C8.6297 32.51 7.9997 35.53 7.9597 37.44C7.9197 39.35 8.3797 41.29 9.3897 42.91C10.0309 43.9442 11.2188 45.2351 12.5371 45.7929Z" fill="white"></path>
  </symbol>
  <symbol fill="none" xmlns="http://www.w3.org/2000/svg" viewBox="0 0 60 60" id="fee-upcoming">
    <path fill-rule="evenodd" clip-rule="evenodd" d="M0 11.4653C0 8.89055 2.08818 6.80237 4.66295 6.80237H42.2778C44.8525 6.80237 46.9407 8.89055 46.9407 11.4653V13.7639V20.2149V42.2478C46.9407 44.8226 44.8525 46.9108 42.2778 46.9108H40.0003C39.7242 46.9108 39.5003 46.6869 39.5003 46.4108C39.5003 46.1346 39.7242 45.9108 40.0003 45.9108H42.2778C44.3003 45.9108 45.9407 44.2703 45.9407 42.2478V20.7149H34.8417C33.7045 20.7149 32.6125 21.1698 31.8045 21.9678C31.8041 21.9681 31.8038 21.9685 31.8034 21.9688L30.7781 22.9942C29.7827 23.9895 28.4369 24.5389 27.0348 24.5389H19.8953C18.4907 24.5389 17.1468 23.9773 16.1542 22.9963L16.1521 22.9942L16.1521 22.9942L15.1246 21.9667C14.3192 21.1613 13.2287 20.7149 12.0885 20.7149H1V42.2372C1 44.2597 2.64047 45.9002 4.66295 45.9002H23.1473C23.4234 45.9002 23.6473 46.124 23.6473 46.4002C23.6473 46.6763 23.4234 46.9002 23.1473 46.9002H4.66295C2.08818 46.9002 0 44.812 0 42.2372V20.2149V13.7639V11.4653ZM1 14.2639V19.7149H12.0885C13.4905 19.7149 14.8364 20.2643 15.8317 21.2596L16.8571 22.285C16.8574 22.2854 16.8578 22.2857 16.8581 22.286C17.6661 23.084 18.7581 23.5389 19.8953 23.5389H27.0348C28.175 23.5389 29.2655 23.0925 30.0709 22.2871L31.0984 21.2596L31.1005 21.2575C32.0932 20.2766 33.4371 19.7149 34.8417 19.7149H45.9407V14.2639H1ZM45.9407 13.2639H1V11.4653C1 9.44283 2.64047 7.80237 4.66295 7.80237H42.2778C44.3003 7.80237 45.9407 9.44283 45.9407 11.4653V13.2639ZM32.0982 43.3367C32.3743 43.3367 32.5982 43.5606 32.5982 43.8367V51.2839L35.4097 48.4724C35.6049 48.2771 35.9215 48.2771 36.1168 48.4724C36.3121 48.6676 36.3121 48.9842 36.1168 49.1795L32.4517 52.8446L32.0987 53.1976L31.7451 52.8451L28.0694 49.18C27.8739 48.985 27.8734 48.6684 28.0684 48.4729C28.2634 48.2773 28.58 48.2769 28.7755 48.4719L31.5982 51.2864V43.8367C31.5982 43.5606 31.822 43.3367 32.0982 43.3367Z" fill="#72787E"></path>
  </symbol>
  <symbol fill="none" xmlns="http://www.w3.org/2000/svg" viewBox="0 0 60 61" id="sign-done">
    <path fill-rule="evenodd" clip-rule="evenodd" d="M0 0H28.07L41 12.93V61H0V0ZM39.29 12.64L28.36 1.71V12.64H39.29ZM1 60H40V13.64H27.36V1H1V60ZM13.0167 47.1855C12.3236 48.0047 11.5692 48.7713 10.7797 49.48L10.7497 49.5C10.1597 50.04 9.2697 49.16 9.8697 48.62C10.5281 48.0284 11.1653 47.3953 11.7609 46.723C11.2881 46.4856 10.8367 46.1904 10.4197 45.87C7.4797 43.61 6.2997 39.53 6.8597 35.96C7.1297 34.24 7.7797 32.4 9.4097 31.52C11.0397 30.64 13.1497 31.13 14.4897 32.31C17.3297 34.8 17.2497 39.29 15.9197 42.51C15.4021 43.7711 14.7096 44.9613 13.8973 46.0692C14.0518 46.0637 14.2061 46.0445 14.3597 46.01C15.6197 45.73 16.4597 44.46 16.8197 43.3C17.0397 42.62 18.0097 42.77 18.0497 43.47C18.1197 44.74 18.2797 46.08 18.8797 47.21C18.8983 47.2403 18.9262 47.2949 18.9601 47.3615C19.0718 47.5808 19.2493 47.9293 19.3797 47.96C19.7317 48.04 19.9301 47.6784 20.0927 47.382C20.1333 47.308 20.1717 47.238 20.2097 47.18C20.4047 46.875 20.6022 46.5725 20.7997 46.27C20.9972 45.9675 21.1947 45.665 21.3897 45.36C21.5997 45.03 22.0797 44.93 22.3697 45.23C22.4031 45.2648 22.446 45.3119 22.4964 45.3672C22.8229 45.7257 23.4639 46.4293 23.8797 46.36C24.1271 46.3199 24.2806 46.0383 24.424 45.7754C24.495 45.6451 24.5635 45.5195 24.6397 45.43C25.1997 44.75 26.0197 44.59 26.8597 44.81C27.4377 44.9618 27.9783 45.2432 28.5191 45.5247C28.9046 45.7253 29.2902 45.926 29.6897 46.08C30.9797 46.57 32.3397 46.85 33.7097 47.02C34.4997 47.12 34.5097 48.37 33.7097 48.27C32.2297 48.09 30.7597 47.81 29.3597 47.28C29.0919 47.1785 28.7685 47.0055 28.4219 46.8201C27.539 46.3479 26.506 45.7953 25.8597 46.14C25.5453 46.3053 25.3462 46.5713 25.1512 46.832C24.8624 47.2179 24.5824 47.5921 23.9497 47.61C23.2424 47.6317 22.5976 47.1741 22.0605 46.6772C22.0561 46.6849 22.0517 46.6927 22.0474 46.7006C21.2617 48.1019 20.0378 50.285 18.5997 48.93C17.7014 48.0823 17.2593 46.8504 17.0304 45.5938C16.6606 46.0809 16.2127 46.5034 15.6897 46.81C14.8132 47.3213 13.8987 47.3868 13.0167 47.1855ZM12.5371 45.7929C13.4762 44.5947 14.2699 43.2867 14.8197 41.88C15.4997 40.14 15.7597 38.26 15.3597 36.43C14.9197 34.38 13.4697 32.17 11.0497 32.34C8.6297 32.51 7.9997 35.53 7.9597 37.44C7.9197 39.35 8.3797 41.29 9.3897 42.91C10.0309 43.9442 11.2188 45.2351 12.5371 45.7929Z" fill="url(#paint0_linear_412_2682)"></path>
    <defs>
      <linearGradient id="paint0_linear_412_2682" x1="0" y1="11.8147" x2="41" y2="11.8147" gradientUnits="userSpaceOnUse">
        <stop stop-color="#0898C7"></stop>
        <stop offset="1" stop-color="#006BA8"></stop>
      </linearGradient>
    </defs>
  </symbol>
  <symbol fill="none" xmlns="http://www.w3.org/2000/svg" viewBox="0 0 60 61" id="sign-upcoming">
    <path fill-rule="evenodd" clip-rule="evenodd" d="M0 0H28.07L41 12.93V61H0V0ZM39.29 12.64L28.36 1.71V12.64H39.29ZM1 60H40V13.64H27.36V1H1V60ZM13.0167 47.1855C12.3236 48.0047 11.5692 48.7713 10.7797 49.48L10.7497 49.5C10.1597 50.04 9.2697 49.16 9.8697 48.62C10.5281 48.0284 11.1653 47.3953 11.7609 46.723C11.2881 46.4856 10.8367 46.1904 10.4197 45.87C7.4797 43.61 6.2997 39.53 6.8597 35.96C7.1297 34.24 7.7797 32.4 9.4097 31.52C11.0397 30.64 13.1497 31.13 14.4897 32.31C17.3297 34.8 17.2497 39.29 15.9197 42.51C15.4021 43.7711 14.7096 44.9613 13.8973 46.0692C14.0518 46.0637 14.2061 46.0445 14.3597 46.01C15.6197 45.73 16.4597 44.46 16.8197 43.3C17.0397 42.62 18.0097 42.77 18.0497 43.47C18.1197 44.74 18.2797 46.08 18.8797 47.21C18.8983 47.2403 18.9262 47.2949 18.9601 47.3615C19.0718 47.5808 19.2493 47.9293 19.3797 47.96C19.7317 48.04 19.9301 47.6784 20.0927 47.382C20.1333 47.308 20.1717 47.238 20.2097 47.18C20.4047 46.875 20.6022 46.5725 20.7997 46.27C20.9972 45.9675 21.1947 45.665 21.3897 45.36C21.5997 45.03 22.0797 44.93 22.3697 45.23C22.4031 45.2648 22.446 45.3119 22.4964 45.3672C22.8229 45.7257 23.4639 46.4293 23.8797 46.36C24.1271 46.3199 24.2806 46.0383 24.424 45.7754C24.495 45.6451 24.5635 45.5195 24.6397 45.43C25.1997 44.75 26.0197 44.59 26.8597 44.81C27.4377 44.9618 27.9783 45.2432 28.5191 45.5247C28.9046 45.7253 29.2902 45.926 29.6897 46.08C30.9797 46.57 32.3397 46.85 33.7097 47.02C34.4997 47.12 34.5097 48.37 33.7097 48.27C32.2297 48.09 30.7597 47.81 29.3597 47.28C29.0919 47.1785 28.7685 47.0055 28.4219 46.8201C27.539 46.3479 26.506 45.7953 25.8597 46.14C25.5453 46.3053 25.3462 46.5713 25.1512 46.832C24.8624 47.2179 24.5824 47.5921 23.9497 47.61C23.2424 47.6317 22.5976 47.1741 22.0605 46.6772C22.0561 46.6849 22.0517 46.6927 22.0474 46.7006C21.2617 48.1019 20.0378 50.285 18.5997 48.93C17.7014 48.0823 17.2593 46.8504 17.0304 45.5938C16.6606 46.0809 16.2127 46.5034 15.6897 46.81C14.8132 47.3213 13.8987 47.3868 13.0167 47.1855ZM12.5371 45.7929C13.4762 44.5947 14.2699 43.2867 14.8197 41.88C15.4997 40.14 15.7597 38.26 15.3597 36.43C14.9197 34.38 13.4697 32.17 11.0497 32.34C8.6297 32.51 7.9997 35.53 7.9597 37.44C7.9197 39.35 8.3797 41.29 9.3897 42.91C10.0309 43.9442 11.2188 45.2351 12.5371 45.7929Z" fill="#72787E"></path>
  </symbol>
  <symbol fill="none" xmlns="http://www.w3.org/2000/svg" viewBox="0 0 60 60" id="tested-current">
    <g clip-path="url(#clip0_412_2731)">
      <path d="M48.9287 7.83781L50.5888 9.72712L53.6672 2.53076" stroke="white" stroke-miterlimit="10" stroke-linecap="round"></path>
      <path d="M41.3119 12.0727H4.87511C2.46911 12.0727 0.525391 9.94992 0.525391 7.32824C0.525391 4.70655 2.46911 2.57312 4.87511 2.57312H41.3119" stroke="white" stroke-miterlimit="10" stroke-linecap="round"></path>
      <path d="M55.4751 11.4678C55.4751 11.8075 55.2019 12.0728 54.8762 12.0728H46.429C46.0927 12.0728 45.8301 11.7968 45.8301 11.4678V7.80594C45.8301 7.46628 46.0192 6.99926 46.2608 6.76575L50.2323 2.75362C50.4635 2.52011 50.8522 2.52011 51.0834 2.75362L55.0548 6.76575C55.286 6.99926 55.4856 7.46628 55.4856 7.80594V11.4572L55.4751 11.4678Z" stroke="white" stroke-miterlimit="10" stroke-linecap="round"></path>
      <path d="M48.9287 22.9734L50.5888 24.8521L53.6672 17.6664" stroke="white" stroke-miterlimit="10" stroke-linecap="round"></path>
      <path d="M55.4751 26.5929C55.4751 26.9326 55.2019 27.1979 54.8762 27.1979H46.429C46.0927 27.1979 45.8301 26.922 45.8301 26.5929V22.9311C45.8301 22.5914 46.0192 22.1244 46.2608 21.8909L50.2323 17.8787C50.4635 17.6452 50.8522 17.6452 51.0834 17.8787L55.0548 21.8909C55.286 22.1244 55.4856 22.5914 55.4856 22.9311V26.5823L55.4751 26.5929Z" stroke="white" stroke-miterlimit="10" stroke-linecap="round"></path>
      <path d="M55.4751 41.7285C55.4751 42.0682 55.2019 42.3335 54.8762 42.3335H46.429C46.0927 42.3335 45.8301 42.0576 45.8301 41.7285V38.0667C45.8301 37.727 46.0192 37.26 46.2608 37.0265L50.2323 33.0144C50.4635 32.7809 50.8522 32.7809 51.0834 33.0144L55.0548 37.0265C55.286 37.26 55.4856 37.727 55.4856 38.0667V41.7179L55.4751 41.7285Z" fill="white" stroke="white" stroke-miterlimit="10" stroke-linecap="round"></path>
      <path d="M55.4751 56.8643C55.4751 57.2039 55.2019 57.4693 54.8762 57.4693H46.429C46.0927 57.4693 45.8301 57.1933 45.8301 56.8643V53.2024C45.8301 52.8628 46.0192 52.3957 46.2608 52.1622L50.2323 48.1501C50.4635 47.9166 50.8522 47.9166 51.0834 48.1501L55.0548 52.1622C55.286 52.3957 55.4856 52.8628 55.4856 53.2024V56.8537L55.4751 56.8643Z" stroke="white" stroke-miterlimit="10" stroke-linecap="round"></path>
      <path d="M41.3119 27.2085H4.87511C2.47961 27.2085 0.525391 25.0857 0.525391 22.464C0.525391 19.8423 2.46911 17.7195 4.87511 17.7195H41.3119" stroke="white" stroke-miterlimit="10" stroke-linecap="round"></path>
      <path d="M41.3119 42.3336H4.87511C2.47961 42.3336 0.525391 40.2108 0.525391 37.5891C0.525391 34.9674 2.46911 32.8446 4.87511 32.8446H41.3119" stroke="white" stroke-miterlimit="10" stroke-linecap="round"></path>
      <path d="M41.3119 57.4694H4.87511C2.47961 57.4694 0.525391 55.3465 0.525391 52.7249C0.525391 50.1032 2.46911 47.9803 4.87511 47.9803H41.3119" stroke="white" stroke-miterlimit="10" stroke-linecap="round"></path>
    </g>
    <defs>
      <clipPath id="clip0_412_2731">
        <rect width="56" height="56" fill="white" transform="translate(0 2)"></rect>
      </clipPath>
    </defs>
  </symbol>
  <symbol fill="none" xmlns="http://www.w3.org/2000/svg" viewBox="0 0 60 60" id="tested-done">
    <g clip-path="url(#clip0_412_2689)">
      <path d="M48.9287 7.83781L50.5888 9.72712L53.6672 2.53076" stroke="url(#paint0_linear_412_2689)" stroke-miterlimit="10" stroke-linecap="round"></path>
      <path d="M41.3119 12.0727H4.87511C2.46911 12.0727 0.525391 9.94992 0.525391 7.32824C0.525391 4.70655 2.46911 2.57312 4.87511 2.57312H41.3119" stroke="url(#paint1_linear_412_2689)" stroke-miterlimit="10" stroke-linecap="round"></path>
      <path d="M55.4751 11.4678C55.4751 11.8075 55.2019 12.0728 54.8762 12.0728H46.429C46.0927 12.0728 45.8301 11.7968 45.8301 11.4678V7.80594C45.8301 7.46628 46.0192 6.99926 46.2608 6.76575L50.2323 2.75362C50.4635 2.52011 50.8522 2.52011 51.0834 2.75362L55.0548 6.76575C55.286 6.99926 55.4856 7.46628 55.4856 7.80594V11.4572L55.4751 11.4678Z" stroke="url(#paint2_linear_412_2689)" stroke-miterlimit="10" stroke-linecap="round"></path>
      <path d="M48.9287 22.9734L50.5888 24.8521L53.6672 17.6664" stroke="url(#paint3_linear_412_2689)" stroke-miterlimit="10" stroke-linecap="round"></path>
      <path d="M55.4751 26.5929C55.4751 26.9326 55.2019 27.1979 54.8762 27.1979H46.429C46.0927 27.1979 45.8301 26.922 45.8301 26.5929V22.9311C45.8301 22.5914 46.0192 22.1244 46.2608 21.8909L50.2323 17.8787C50.4635 17.6452 50.8522 17.6452 51.0834 17.8787L55.0548 21.8909C55.286 22.1244 55.4856 22.5914 55.4856 22.9311V26.5823L55.4751 26.5929Z" stroke="url(#paint4_linear_412_2689)" stroke-miterlimit="10" stroke-linecap="round"></path>
      <path d="M55.4751 41.7285C55.4751 42.0682 55.2019 42.3335 54.8762 42.3335H46.429C46.0927 42.3335 45.8301 42.0576 45.8301 41.7285V38.0667C45.8301 37.727 46.0192 37.26 46.2608 37.0265L50.2323 33.0144C50.4635 32.7809 50.8522 32.7809 51.0834 33.0144L55.0548 37.0265C55.286 37.26 55.4856 37.727 55.4856 38.0667V41.7179L55.4751 41.7285Z" fill="url(#paint5_linear_412_2689)" stroke="url(#paint6_linear_412_2689)" stroke-miterlimit="10" stroke-linecap="round"></path>
      <path d="M55.4751 56.8643C55.4751 57.2039 55.2019 57.4693 54.8762 57.4693H46.429C46.0927 57.4693 45.8301 57.1933 45.8301 56.8643V53.2024C45.8301 52.8628 46.0192 52.3957 46.2608 52.1622L50.2323 48.1501C50.4635 47.9166 50.8522 47.9166 51.0834 48.1501L55.0548 52.1622C55.286 52.3957 55.4856 52.8628 55.4856 53.2024V56.8537L55.4751 56.8643Z" stroke="url(#paint7_linear_412_2689)" stroke-miterlimit="10" stroke-linecap="round"></path>
      <path d="M41.3119 27.2085H4.87511C2.47961 27.2085 0.525391 25.0857 0.525391 22.464C0.525391 19.8423 2.46911 17.7195 4.87511 17.7195H41.3119" stroke="url(#paint8_linear_412_2689)" stroke-miterlimit="10" stroke-linecap="round"></path>
      <path d="M41.3119 42.3336H4.87511C2.47961 42.3336 0.525391 40.2108 0.525391 37.5891C0.525391 34.9674 2.46911 32.8446 4.87511 32.8446H41.3119" stroke="url(#paint9_linear_412_2689)" stroke-miterlimit="10" stroke-linecap="round"></path>
      <path d="M41.3119 57.4694H4.87511C2.47961 57.4694 0.525391 55.3465 0.525391 52.7249C0.525391 50.1032 2.46911 47.9803 4.87511 47.9803H41.3119" stroke="url(#paint10_linear_412_2689)" stroke-miterlimit="10" stroke-linecap="round"></path>
    </g>
    <defs>
      <linearGradient id="paint0_linear_412_2689" x1="48.9287" y1="3.92458" x2="53.6672" y2="3.92458" gradientUnits="userSpaceOnUse">
        <stop stop-color="#0898C7"></stop>
        <stop offset="1" stop-color="#006BA8"></stop>
      </linearGradient>
      <linearGradient id="paint1_linear_412_2689" x1="0.525391" y1="4.41305" x2="41.3119" y2="4.41305" gradientUnits="userSpaceOnUse">
        <stop stop-color="#0898C7"></stop>
        <stop offset="1" stop-color="#006BA8"></stop>
      </linearGradient>
      <linearGradient id="paint2_linear_412_2689" x1="45.8301" y1="4.41739" x2="55.4856" y2="4.41739" gradientUnits="userSpaceOnUse">
        <stop stop-color="#0898C7"></stop>
        <stop offset="1" stop-color="#006BA8"></stop>
      </linearGradient>
      <linearGradient id="paint3_linear_412_2689" x1="48.9287" y1="19.0581" x2="53.6672" y2="19.0581" gradientUnits="userSpaceOnUse">
        <stop stop-color="#0898C7"></stop>
        <stop offset="1" stop-color="#006BA8"></stop>
      </linearGradient>
      <linearGradient id="paint4_linear_412_2689" x1="45.8301" y1="19.5425" x2="55.4856" y2="19.5425" gradientUnits="userSpaceOnUse">
        <stop stop-color="#0898C7"></stop>
        <stop offset="1" stop-color="#006BA8"></stop>
      </linearGradient>
      <linearGradient id="paint5_linear_412_2689" x1="45.8301" y1="34.6781" x2="55.4856" y2="34.6781" gradientUnits="userSpaceOnUse">
        <stop stop-color="#0898C7"></stop>
        <stop offset="1" stop-color="#006BA8"></stop>
      </linearGradient>
      <linearGradient id="paint6_linear_412_2689" x1="45.8301" y1="34.6781" x2="55.4856" y2="34.6781" gradientUnits="userSpaceOnUse">
        <stop stop-color="#0898C7"></stop>
        <stop offset="1" stop-color="#006BA8"></stop>
      </linearGradient>
      <linearGradient id="paint7_linear_412_2689" x1="45.8301" y1="49.8139" x2="55.4856" y2="49.8139" gradientUnits="userSpaceOnUse">
        <stop stop-color="#0898C7"></stop>
        <stop offset="1" stop-color="#006BA8"></stop>
      </linearGradient>
      <linearGradient id="paint8_linear_412_2689" x1="0.525391" y1="19.5574" x2="41.3119" y2="19.5574" gradientUnits="userSpaceOnUse">
        <stop stop-color="#0898C7"></stop>
        <stop offset="1" stop-color="#006BA8"></stop>
      </linearGradient>
      <linearGradient id="paint9_linear_412_2689" x1="0.525391" y1="34.6825" x2="41.3119" y2="34.6825" gradientUnits="userSpaceOnUse">
        <stop stop-color="#0898C7"></stop>
        <stop offset="1" stop-color="#006BA8"></stop>
      </linearGradient>
      <linearGradient id="paint10_linear_412_2689" x1="0.525391" y1="49.8182" x2="41.3119" y2="49.8182" gradientUnits="userSpaceOnUse">
        <stop stop-color="#0898C7"></stop>
        <stop offset="1" stop-color="#006BA8"></stop>
      </linearGradient>
      <clipPath id="clip0_412_2689">
        <rect width="56" height="56" fill="white" transform="translate(0 2)"></rect>
      </clipPath>
    </defs>
  </symbol>
  <symbol fill="none" xmlns="http://www.w3.org/2000/svg" viewBox="0 0 60 60" id="tested-upcoming">
    <g clip-path="url(#clip0_412_2646)">
      <path d="M48.9287 7.83781L50.5888 9.72712L53.6672 2.53076" stroke="#72787E" stroke-miterlimit="10" stroke-linecap="round"></path>
      <path d="M41.3119 12.0727H4.87511C2.46911 12.0727 0.525391 9.94992 0.525391 7.32824C0.525391 4.70655 2.46911 2.57312 4.87511 2.57312H41.3119" stroke="#72787E" stroke-miterlimit="10" stroke-linecap="round"></path>
      <path d="M55.4751 11.4678C55.4751 11.8075 55.2019 12.0728 54.8762 12.0728H46.429C46.0927 12.0728 45.8301 11.7968 45.8301 11.4678V7.80594C45.8301 7.46628 46.0192 6.99926 46.2608 6.76575L50.2323 2.75362C50.4635 2.52011 50.8522 2.52011 51.0834 2.75362L55.0548 6.76575C55.286 6.99926 55.4856 7.46628 55.4856 7.80594V11.4572L55.4751 11.4678Z" stroke="#72787E" stroke-miterlimit="10" stroke-linecap="round"></path>
      <path d="M48.9287 22.9734L50.5888 24.8521L53.6672 17.6664" stroke="#72787E" stroke-miterlimit="10" stroke-linecap="round"></path>
      <path d="M55.4751 26.5929C55.4751 26.9326 55.2019 27.1979 54.8762 27.1979H46.429C46.0927 27.1979 45.8301 26.922 45.8301 26.5929V22.9311C45.8301 22.5914 46.0192 22.1244 46.2608 21.8909L50.2323 17.8787C50.4635 17.6452 50.8522 17.6452 51.0834 17.8787L55.0548 21.8909C55.286 22.1244 55.4856 22.5914 55.4856 22.9311V26.5823L55.4751 26.5929Z" stroke="#72787E" stroke-miterlimit="10" stroke-linecap="round"></path>
      <path d="M55.4751 41.7285C55.4751 42.0682 55.2019 42.3335 54.8762 42.3335H46.429C46.0927 42.3335 45.8301 42.0576 45.8301 41.7285V38.0667C45.8301 37.727 46.0192 37.26 46.2608 37.0265L50.2323 33.0144C50.4635 32.7809 50.8522 32.7809 51.0834 33.0144L55.0548 37.0265C55.286 37.26 55.4856 37.727 55.4856 38.0667V41.7179L55.4751 41.7285Z" fill="#72787E" stroke="#72787E" stroke-miterlimit="10" stroke-linecap="round"></path>
      <path d="M55.4751 56.8643C55.4751 57.2039 55.2019 57.4693 54.8762 57.4693H46.429C46.0927 57.4693 45.8301 57.1933 45.8301 56.8643V53.2024C45.8301 52.8628 46.0192 52.3957 46.2608 52.1622L50.2323 48.1501C50.4635 47.9166 50.8522 47.9166 51.0834 48.1501L55.0548 52.1622C55.286 52.3957 55.4856 52.8628 55.4856 53.2024V56.8537L55.4751 56.8643Z" stroke="#72787E" stroke-miterlimit="10" stroke-linecap="round"></path>
      <path d="M41.3119 27.2085H4.87511C2.47961 27.2085 0.525391 25.0857 0.525391 22.464C0.525391 19.8423 2.46911 17.7195 4.87511 17.7195H41.3119" stroke="#72787E" stroke-miterlimit="10" stroke-linecap="round"></path>
      <path d="M41.3119 42.3336H4.87511C2.47961 42.3336 0.525391 40.2108 0.525391 37.5891C0.525391 34.9674 2.46911 32.8446 4.87511 32.8446H41.3119" stroke="#72787E" stroke-miterlimit="10" stroke-linecap="round"></path>
      <path d="M41.3119 57.4694H4.87511C2.47961 57.4694 0.525391 55.3465 0.525391 52.7249C0.525391 50.1032 2.46911 47.9803 4.87511 47.9803H41.3119" stroke="#72787E" stroke-miterlimit="10" stroke-linecap="round"></path>
    </g>
    <defs>
      <clipPath id="clip0_412_2646">
        <rect width="56" height="56" fill="white" transform="translate(0 2)"></rect>
      </clipPath>
    </defs>
  </symbol>
  <symbol fill="none" xmlns="http://www.w3.org/2000/svg" viewBox="0 0 60 60" id="approval-current">
    <g clip-path="url(#clip0_412_2749)">
      <path d="M29.9997 25.9391C33.5904 25.9391 36.5013 23.0079 36.5013 19.392C36.5013 15.7762 33.5904 12.845 29.9997 12.845C26.4089 12.845 23.498 15.7762 23.498 19.392C23.498 23.0079 26.4089 25.9391 29.9997 25.9391Z" fill="white" stroke="white" stroke-miterlimit="10" stroke-linecap="round"></path>
      <path d="M21.8257 45.1344C21.8257 45.3721 21.629 45.5702 21.3929 45.5702H15.3732C15.1372 45.5702 14.9404 45.3721 14.9404 45.1344V42.5393C14.9404 42.3016 15.0781 41.9649 15.2453 41.7965L18.0781 38.9439C18.2453 38.7755 18.5208 38.7755 18.688 38.9439L21.5208 41.7965C21.688 41.9649 21.8257 42.3016 21.8257 42.5393V45.1344Z" fill="white"></path>
      <path d="M47.4192 35.2693H12.5799C11.3902 35.2693 10.4258 36.2404 10.4258 37.4384V46.9569C10.4258 48.1549 11.3902 49.1261 12.5799 49.1261H47.4192C48.6089 49.1261 49.5733 48.1549 49.5733 46.9569V37.4384C49.5733 36.2404 48.6089 35.2693 47.4192 35.2693Z" stroke="white" stroke-miterlimit="10" stroke-linecap="round"></path>
      <path d="M25.3867 44.4114H43.4457" stroke="white" stroke-miterlimit="10" stroke-linecap="round"></path>
      <path d="M25.3867 40.7863H32.1736" stroke="white" stroke-miterlimit="10" stroke-linecap="round"></path>
      <path d="M56.1446 4.49524H3.85612C1.99827 4.49524 0.492188 6.01184 0.492188 7.88267V52.1173C0.492188 53.9882 1.99827 55.5048 3.85612 55.5048H56.1446C58.0025 55.5048 59.5086 53.9882 59.5086 52.1173V7.88267C59.5086 6.01184 58.0025 4.49524 56.1446 4.49524Z" stroke="white" stroke-miterlimit="10" stroke-linecap="round"></path>
    </g>
    <defs>
      <clipPath id="clip0_412_2749">
        <rect width="60" height="52" fill="white" transform="translate(0 4)"></rect>
      </clipPath>
    </defs>
  </symbol>
</svg>