<svg width="1397" height="244" viewBox="0 0 1397 244" fill="none" xmlns="http://www.w3.org/2000/svg">
<path d="M71.652 238.933V43.4326H0.251953V0.932617H189.292V43.4326H118.232V238.933H71.652Z" fill="#F2F4F9"/>
<path d="M287.06 238.933L285.7 204.593V152.913C285.7 142.713 284.567 133.986 282.3 126.733C280.26 119.479 276.86 113.926 272.1 110.073C267.567 105.993 261.334 103.953 253.4 103.953C246.147 103.953 239.574 105.539 233.68 108.713C227.787 111.886 222.8 116.759 218.72 123.333L179.28 109.733C182.454 102.479 187.1 95.4525 193.22 88.6525C199.34 81.6259 207.274 75.9592 217.02 71.6525C226.994 67.1192 239.12 64.8525 253.4 64.8525C270.627 64.8525 284.907 68.1392 296.24 74.7125C307.8 81.2859 316.3 90.5792 321.74 102.593C327.407 114.379 330.127 128.433 329.9 144.753L328.88 238.933H287.06ZM239.46 243.013C219.06 243.013 203.194 238.479 191.86 229.413C180.754 220.346 175.2 207.539 175.2 190.993C175.2 172.859 181.207 159.259 193.22 150.193C205.46 140.899 222.574 136.253 244.56 136.253H287.74V169.573H260.2C245.467 169.573 235.267 171.386 229.6 175.013C223.934 178.413 221.1 183.286 221.1 189.633C221.1 194.619 223.367 198.586 227.9 201.533C232.434 204.253 238.78 205.613 246.94 205.613C254.42 205.613 260.994 203.913 266.66 200.513C272.554 196.886 277.2 192.353 280.6 186.913C284 181.246 285.7 175.466 285.7 169.573H296.58C296.58 192.693 292.16 210.713 283.32 223.633C274.707 236.553 260.087 243.013 239.46 243.013Z" fill="#F2F4F9"/>
<path d="M358.869 238.933V0.932617H403.749V238.933H358.869Z" fill="#F2F4F9"/>
<path d="M478.58 195.753L451.72 164.813L538.76 68.9326H592.14L478.58 195.753ZM435.74 238.933V0.932617H480.62V238.933H435.74ZM544.54 238.933L488.1 156.653L517.34 125.713L597.24 238.933H544.54Z" fill="#F2F4F9"/>
<path d="M756.146 243.013C737.333 243.013 723.053 238.366 713.306 229.073C703.786 219.779 699.026 206.519 699.026 189.293V15.8926H743.906V179.433C743.906 186.686 745.493 192.239 748.666 196.093C751.84 199.719 756.486 201.533 762.606 201.533C764.873 201.533 767.366 201.079 770.086 200.173C772.806 199.039 775.64 197.453 778.586 195.413L794.226 229.073C788.786 233.153 782.666 236.439 775.866 238.933C769.293 241.653 762.72 243.013 756.146 243.013ZM671.486 107.013V68.9326H786.406V107.013H671.486Z" fill="#F2F4F9"/>
<path d="M893.014 243.013C875.787 243.013 860.374 239.273 846.774 231.793C833.4 224.086 822.86 213.546 815.154 200.173C807.674 186.799 803.934 171.386 803.934 153.933C803.934 136.479 807.674 121.066 815.154 107.693C822.634 94.3192 833.06 83.8925 846.434 76.4125C859.807 68.7059 875.107 64.8525 892.334 64.8525C909.787 64.8525 925.2 68.7059 938.574 76.4125C951.947 83.8925 962.374 94.3192 969.854 107.693C977.334 121.066 981.074 136.479 981.074 153.933C981.074 171.386 977.334 186.799 969.854 200.173C962.374 213.546 951.947 224.086 938.574 231.793C925.427 239.273 910.24 243.013 893.014 243.013ZM893.014 201.533C901.4 201.533 908.767 199.493 915.114 195.413C921.46 191.333 926.334 185.779 929.734 178.753C933.36 171.499 935.174 163.226 935.174 153.933C935.174 144.639 933.36 136.479 929.734 129.453C926.107 122.199 921.007 116.533 914.434 112.453C908.087 108.373 900.72 106.333 892.334 106.333C884.174 106.333 876.807 108.373 870.234 112.453C863.887 116.533 858.9 122.199 855.274 129.453C851.647 136.479 849.834 144.639 849.834 153.933C849.834 163.226 851.647 171.499 855.274 178.753C858.9 185.779 864 191.333 870.574 195.413C877.147 199.493 884.627 201.533 893.014 201.533Z" fill="#F2F4F9"/>
<path d="M1190.29 238.933L1187.57 207.653V68.9326H1232.45V238.933H1190.29ZM1075.03 155.973V68.9326H1119.91V155.973H1075.03ZM1119.91 155.973C1119.91 167.306 1121.16 176.259 1123.65 182.833C1126.37 189.179 1130.11 193.826 1134.87 196.773C1139.86 199.493 1145.41 200.853 1151.53 200.853C1163.32 201.079 1172.27 197.566 1178.39 190.313C1184.51 182.833 1187.57 172.066 1187.57 158.013H1202.87C1202.87 176.146 1200.15 191.559 1194.71 204.253C1189.27 216.719 1181.79 226.353 1172.27 233.153C1162.75 239.726 1151.53 243.013 1138.61 243.013C1125.01 243.013 1113.45 240.293 1103.93 234.853C1094.41 229.413 1087.16 221.026 1082.17 209.693C1077.41 198.133 1075.03 183.286 1075.03 165.153V155.973H1119.91Z" fill="#F2F4F9"/>
<path d="M1328.11 243.013C1317.23 243.013 1307.03 241.426 1297.51 238.253C1287.99 234.853 1279.6 230.093 1272.35 223.973C1265.1 217.626 1259.43 209.919 1255.35 200.853L1293.77 183.173C1297.17 188.613 1301.82 193.373 1307.71 197.453C1313.61 201.306 1320.4 203.233 1328.11 203.233C1335.59 203.233 1341.37 202.213 1345.45 200.173C1349.53 197.906 1351.57 194.733 1351.57 190.653C1351.57 186.573 1349.87 183.626 1346.47 181.813C1343.3 179.773 1338.88 178.073 1333.21 176.713L1317.57 172.633C1301.25 168.326 1288.33 161.526 1278.81 152.233C1269.52 142.713 1264.87 131.833 1264.87 119.593C1264.87 102.139 1270.42 88.6525 1281.53 79.1325C1292.86 69.6125 1308.84 64.8525 1329.47 64.8525C1340.12 64.8525 1349.98 66.4392 1359.05 69.6125C1368.34 72.7859 1376.28 77.2059 1382.85 82.8725C1389.42 88.5392 1393.96 95.1125 1396.45 102.593L1359.39 119.593C1357.8 115.059 1353.95 111.433 1347.83 108.713C1341.71 105.766 1335.59 104.293 1329.47 104.293C1323.35 104.293 1318.59 105.653 1315.19 108.373C1312.02 110.866 1310.43 114.379 1310.43 118.913C1310.43 121.859 1312.02 124.353 1315.19 126.393C1318.36 128.206 1322.9 129.793 1328.79 131.153L1350.89 136.593C1362 139.313 1370.84 143.733 1377.41 149.853C1384.21 155.746 1389.08 162.433 1392.03 169.913C1395.2 177.166 1396.79 184.306 1396.79 191.333C1396.79 201.533 1393.73 210.599 1387.61 218.533C1381.72 226.239 1373.56 232.246 1363.13 236.553C1352.93 240.859 1341.26 243.013 1328.11 243.013Z" fill="#F2F4F9"/>
</svg>
